<svg id="visual" viewBox="0 0 1000 800" width="1000" height="800" xmlns="http://www.w3.org/2000/svg" xmlns:xlink="http://www.w3.org/1999/xlink" version="1.1"><rect x="0" y="0" width="1000" height="800" fill="#bba79d"></rect><defs><linearGradient id="grad1_0" x1="20%" y1="0%" x2="100%" y2="100%"><stop offset="25%" stop-color="#bba79d" stop-opacity="1"></stop><stop offset="75%" stop-color="#bba79d" stop-opacity="1"></stop></linearGradient></defs><defs><linearGradient id="grad2_0" x1="0%" y1="0%" x2="80%" y2="100%"><stop offset="25%" stop-color="#bba79d" stop-opacity="1"></stop><stop offset="75%" stop-color="#bba79d" stop-opacity="1"></stop></linearGradient></defs><g transform="translate(1000, 0)"><path d="M0 576.3C-72.6 549.3 -145.2 522.2 -200.1 483.2C-255.1 444.1 -292.4 393.1 -351.4 351.4C-410.5 309.8 -491.3 277.5 -532.4 220.5C-573.5 163.5 -574.9 81.8 -576.3 0L0 0Z" fill="#DCC0B2"></path></g><g transform="translate(0, 800)"><path d="M0 -576.3C55.8 -521.6 111.6 -466.9 185.2 -447.2C258.8 -427.4 350.3 -442.5 407.5 -407.5C464.7 -372.5 487.6 -287.5 510 -211.2C532.4 -135 554.3 -67.5 576.3 0L0 0Z" fill="#DCC0B2"></path></g></svg>