<svg id="visual" viewBox="0 0 1440 1080" width="1440" height="1080" xmlns="http://www.w3.org/2000/svg" xmlns:xlink="http://www.w3.org/1999/xlink" version="1.1"><g stroke-width="1" stroke-linejoin="bevel"><path d="M723 508L747 496L711 430Z" fill="#577ebd" stroke="#577ebd"></path><path d="M711 430L649 502L723 508Z" fill="#af73be" stroke="#af73be"></path><path d="M702 426L649 502L711 430Z" fill="#df68a4" stroke="#df68a4"></path><path d="M649 502L679 538L723 508Z" fill="#3d7fb3" stroke="#3d7fb3"></path><path d="M829 569L830 483L747 496Z" fill="#f06590" stroke="#f06590"></path><path d="M702 426L640 420L649 502Z" fill="#297ea6" stroke="#297ea6"></path><path d="M834 384L730 373L711 430Z" fill="#c96db3" stroke="#c96db3"></path><path d="M711 430L730 373L702 426Z" fill="#297ea6" stroke="#297ea6"></path><path d="M702 426L664 385L640 420Z" fill="#577ebd" stroke="#577ebd"></path><path d="M649 502L671 554L679 538Z" fill="#c96db3" stroke="#c96db3"></path><path d="M679 538L682 579L723 508Z" fill="#df68a4" stroke="#df68a4"></path><path d="M730 373L664 385L702 426Z" fill="#c96db3" stroke="#c96db3"></path><path d="M664 385L622 418L640 420Z" fill="#fb6779" stroke="#fb6779"></path><path d="M640 420L622 418L649 502Z" fill="#757cc3" stroke="#757cc3"></path><path d="M759 609L747 496L723 508Z" fill="#3d7fb3" stroke="#3d7fb3"></path><path d="M747 496L830 483L711 430Z" fill="#ff6f61" stroke="#ff6f61"></path><path d="M671 554L682 579L679 538Z" fill="#297ea6" stroke="#297ea6"></path><path d="M830 483L834 384L711 430Z" fill="#9278c3" stroke="#9278c3"></path><path d="M621 253L607 376L664 385Z" fill="#af73be" stroke="#af73be"></path><path d="M664 385L607 376L622 418Z" fill="#297ea6" stroke="#297ea6"></path><path d="M590 603L626 587L649 502Z" fill="#9278c3" stroke="#9278c3"></path><path d="M682 579L759 609L723 508Z" fill="#f06590" stroke="#f06590"></path><path d="M829 569L864 500L830 483Z" fill="#757cc3" stroke="#757cc3"></path><path d="M905 403L880 373L834 384Z" fill="#ff6f61" stroke="#ff6f61"></path><path d="M759 609L829 569L747 496Z" fill="#c96db3" stroke="#c96db3"></path><path d="M501 499L649 502L622 418Z" fill="#f06590" stroke="#f06590"></path><path d="M649 502L626 587L671 554Z" fill="#ff6f61" stroke="#ff6f61"></path><path d="M671 554L626 587L682 579Z" fill="#ff6f61" stroke="#ff6f61"></path><path d="M752 734L809 704L759 609Z" fill="#f06590" stroke="#f06590"></path><path d="M607 376L556 383L622 418Z" fill="#df68a4" stroke="#df68a4"></path><path d="M501 499L590 603L649 502Z" fill="#577ebd" stroke="#577ebd"></path><path d="M680 725L759 609L682 579Z" fill="#fb6779" stroke="#fb6779"></path><path d="M905 403L834 384L830 483Z" fill="#fb6779" stroke="#fb6779"></path><path d="M867 290L739 239L730 373Z" fill="#fb6779" stroke="#fb6779"></path><path d="M864 500L905 403L830 483Z" fill="#df68a4" stroke="#df68a4"></path><path d="M829 569L913 506L864 500Z" fill="#df68a4" stroke="#df68a4"></path><path d="M864 500L913 506L905 403Z" fill="#757cc3" stroke="#757cc3"></path><path d="M556 383L501 499L622 418Z" fill="#df68a4" stroke="#df68a4"></path><path d="M913 506L933 411L905 403Z" fill="#9278c3" stroke="#9278c3"></path><path d="M905 403L939 312L880 373Z" fill="#9278c3" stroke="#9278c3"></path><path d="M867 290L730 373L834 384Z" fill="#fb6779" stroke="#fb6779"></path><path d="M730 373L621 253L664 385Z" fill="#af73be" stroke="#af73be"></path><path d="M607 376L530 254L556 383Z" fill="#757cc3" stroke="#757cc3"></path><path d="M867 290L834 384L880 373Z" fill="#df68a4" stroke="#df68a4"></path><path d="M501 600L542 620L590 603Z" fill="#3d7fb3" stroke="#3d7fb3"></path><path d="M680 725L682 579L626 587Z" fill="#df68a4" stroke="#df68a4"></path><path d="M939 312L867 290L880 373Z" fill="#ff6f61" stroke="#ff6f61"></path><path d="M739 239L621 253L730 373Z" fill="#c96db3" stroke="#c96db3"></path><path d="M809 704L892 637L829 569Z" fill="#f06590" stroke="#f06590"></path><path d="M829 569L892 637L913 506Z" fill="#fb6779" stroke="#fb6779"></path><path d="M913 506L1005 452L933 411Z" fill="#297ea6" stroke="#297ea6"></path><path d="M809 704L829 569L759 609Z" fill="#3d7fb3" stroke="#3d7fb3"></path><path d="M820 216L741 223L739 239Z" fill="#f06590" stroke="#f06590"></path><path d="M739 239L628 208L621 253Z" fill="#c96db3" stroke="#c96db3"></path><path d="M530 254L488 371L556 383Z" fill="#df68a4" stroke="#df68a4"></path><path d="M556 383L488 371L501 499Z" fill="#757cc3" stroke="#757cc3"></path><path d="M680 725L626 587L590 603Z" fill="#297ea6" stroke="#297ea6"></path><path d="M431 519L501 600L501 499Z" fill="#f06590" stroke="#f06590"></path><path d="M501 499L501 600L590 603Z" fill="#f06590" stroke="#f06590"></path><path d="M481 717L557 670L542 620Z" fill="#df68a4" stroke="#df68a4"></path><path d="M542 620L557 670L590 603Z" fill="#df68a4" stroke="#df68a4"></path><path d="M596 730L680 725L590 603Z" fill="#f06590" stroke="#f06590"></path><path d="M752 734L813 714L809 704Z" fill="#f06590" stroke="#f06590"></path><path d="M809 704L813 714L892 637Z" fill="#fb6779" stroke="#fb6779"></path><path d="M680 725L752 734L759 609Z" fill="#fb6779" stroke="#fb6779"></path><path d="M426 348L460 391L488 371Z" fill="#f06590" stroke="#f06590"></path><path d="M488 371L460 391L501 499Z" fill="#ff6f61" stroke="#ff6f61"></path><path d="M933 411L939 312L905 403Z" fill="#fb6779" stroke="#fb6779"></path><path d="M867 290L820 216L739 239Z" fill="#ff6f61" stroke="#ff6f61"></path><path d="M899 259L820 216L867 290Z" fill="#577ebd" stroke="#577ebd"></path><path d="M741 223L628 208L739 239Z" fill="#297ea6" stroke="#297ea6"></path><path d="M621 253L530 254L607 376Z" fill="#f06590" stroke="#f06590"></path><path d="M742 146L628 208L741 223Z" fill="#f06590" stroke="#f06590"></path><path d="M1016 575L977 566L1036 613Z" fill="#af73be" stroke="#af73be"></path><path d="M892 637L977 566L913 506Z" fill="#c96db3" stroke="#c96db3"></path><path d="M933 411L1022 406L939 312Z" fill="#fb6779" stroke="#fb6779"></path><path d="M939 312L899 259L867 290Z" fill="#f06590" stroke="#f06590"></path><path d="M550 231L530 254L621 253Z" fill="#df68a4" stroke="#df68a4"></path><path d="M977 566L1005 452L913 506Z" fill="#c96db3" stroke="#c96db3"></path><path d="M575 735L596 730L557 670Z" fill="#757cc3" stroke="#757cc3"></path><path d="M557 670L596 730L590 603Z" fill="#fb6779" stroke="#fb6779"></path><path d="M680 725L735 769L752 734Z" fill="#af73be" stroke="#af73be"></path><path d="M628 208L588 210L621 253Z" fill="#ff6f61" stroke="#ff6f61"></path><path d="M588 210L550 231L621 253Z" fill="#fb6779" stroke="#fb6779"></path><path d="M416 472L431 519L501 499Z" fill="#f06590" stroke="#f06590"></path><path d="M527 714L575 735L557 670Z" fill="#757cc3" stroke="#757cc3"></path><path d="M405 355L427 435L460 391Z" fill="#297ea6" stroke="#297ea6"></path><path d="M460 391L427 435L501 499Z" fill="#f06590" stroke="#f06590"></path><path d="M657 774L735 769L680 725Z" fill="#577ebd" stroke="#577ebd"></path><path d="M752 734L776 786L813 714Z" fill="#ff6f61" stroke="#ff6f61"></path><path d="M527 714L557 670L481 717Z" fill="#3d7fb3" stroke="#3d7fb3"></path><path d="M596 730L657 774L680 725Z" fill="#f06590" stroke="#f06590"></path><path d="M427 435L416 472L501 499Z" fill="#f06590" stroke="#f06590"></path><path d="M983 264L870 201L899 259Z" fill="#9278c3" stroke="#9278c3"></path><path d="M899 259L870 201L820 216Z" fill="#577ebd" stroke="#577ebd"></path><path d="M820 216L742 146L741 223Z" fill="#ff6f61" stroke="#ff6f61"></path><path d="M1048 461L1022 406L1005 452Z" fill="#fb6779" stroke="#fb6779"></path><path d="M1005 452L1022 406L933 411Z" fill="#577ebd" stroke="#577ebd"></path><path d="M939 312L983 264L899 259Z" fill="#577ebd" stroke="#577ebd"></path><path d="M518 724L527 714L481 717Z" fill="#9278c3" stroke="#9278c3"></path><path d="M604 803L596 730L575 735Z" fill="#757cc3" stroke="#757cc3"></path><path d="M604 803L657 774L596 730Z" fill="#f06590" stroke="#f06590"></path><path d="M1036 613L977 566L892 637Z" fill="#297ea6" stroke="#297ea6"></path><path d="M977 566L1016 575L1005 452Z" fill="#f06590" stroke="#f06590"></path><path d="M1036 613L892 637L1033 676Z" fill="#df68a4" stroke="#df68a4"></path><path d="M405 355L426 348L386 350Z" fill="#fb6779" stroke="#fb6779"></path><path d="M530 254L426 348L488 371Z" fill="#f06590" stroke="#f06590"></path><path d="M346 452L388 488L416 472Z" fill="#ff6f61" stroke="#ff6f61"></path><path d="M778 835L776 786L735 769Z" fill="#c96db3" stroke="#c96db3"></path><path d="M735 769L776 786L752 734Z" fill="#c96db3" stroke="#c96db3"></path><path d="M581 141L562 186L588 210Z" fill="#df68a4" stroke="#df68a4"></path><path d="M588 210L562 186L550 231Z" fill="#df68a4" stroke="#df68a4"></path><path d="M550 231L420 206L530 254Z" fill="#ff6f61" stroke="#ff6f61"></path><path d="M581 141L588 210L628 208Z" fill="#3d7fb3" stroke="#3d7fb3"></path><path d="M844 129L742 146L820 216Z" fill="#9278c3" stroke="#9278c3"></path><path d="M481 717L542 620L501 600Z" fill="#577ebd" stroke="#577ebd"></path><path d="M527 714L518 724L575 735Z" fill="#ff6f61" stroke="#ff6f61"></path><path d="M1016 575L1048 461L1005 452Z" fill="#9278c3" stroke="#9278c3"></path><path d="M416 472L388 488L431 519Z" fill="#577ebd" stroke="#577ebd"></path><path d="M437 671L481 717L501 600Z" fill="#f06590" stroke="#f06590"></path><path d="M346 452L416 472L427 435Z" fill="#3d7fb3" stroke="#3d7fb3"></path><path d="M386 350L426 348L374 273Z" fill="#9278c3" stroke="#9278c3"></path><path d="M426 348L405 355L460 391Z" fill="#297ea6" stroke="#297ea6"></path><path d="M1033 273L939 312L1022 406Z" fill="#ff6f61" stroke="#ff6f61"></path><path d="M1033 273L983 264L939 312Z" fill="#757cc3" stroke="#757cc3"></path><path d="M437 671L501 600L384 570Z" fill="#fb6779" stroke="#fb6779"></path><path d="M509 836L604 803L575 735Z" fill="#f06590" stroke="#f06590"></path><path d="M384 570L501 600L431 519Z" fill="#757cc3" stroke="#757cc3"></path><path d="M1033 676L892 637L1008 727Z" fill="#577ebd" stroke="#577ebd"></path><path d="M1016 575L1091 578L1048 461Z" fill="#9278c3" stroke="#9278c3"></path><path d="M362 502L384 570L431 519Z" fill="#577ebd" stroke="#577ebd"></path><path d="M374 273L426 348L420 206Z" fill="#577ebd" stroke="#577ebd"></path><path d="M405 355L386 350L427 435Z" fill="#af73be" stroke="#af73be"></path><path d="M388 488L362 502L431 519Z" fill="#c96db3" stroke="#c96db3"></path><path d="M509 836L575 735L518 724Z" fill="#c96db3" stroke="#c96db3"></path><path d="M669 855L778 835L735 769Z" fill="#df68a4" stroke="#df68a4"></path><path d="M583 119L581 141L628 208Z" fill="#af73be" stroke="#af73be"></path><path d="M420 206L426 348L530 254Z" fill="#577ebd" stroke="#577ebd"></path><path d="M346 452L362 502L388 488Z" fill="#af73be" stroke="#af73be"></path><path d="M886 105L844 129L870 201Z" fill="#ff6f61" stroke="#ff6f61"></path><path d="M870 201L844 129L820 216Z" fill="#df68a4" stroke="#df68a4"></path><path d="M742 146L583 119L628 208Z" fill="#ff6f61" stroke="#ff6f61"></path><path d="M1084 335L1033 273L1022 406Z" fill="#577ebd" stroke="#577ebd"></path><path d="M1038 193L886 105L870 201Z" fill="#577ebd" stroke="#577ebd"></path><path d="M669 855L735 769L657 774Z" fill="#9278c3" stroke="#9278c3"></path><path d="M776 786L879 848L813 714Z" fill="#fb6779" stroke="#fb6779"></path><path d="M1067 635L1071 589L1036 613Z" fill="#297ea6" stroke="#297ea6"></path><path d="M1036 613L1071 589L1016 575Z" fill="#9278c3" stroke="#9278c3"></path><path d="M1106 424L1089 375L1022 406Z" fill="#757cc3" stroke="#757cc3"></path><path d="M340 445L346 452L427 435Z" fill="#ff6f61" stroke="#ff6f61"></path><path d="M568 102L583 119L622 0Z" fill="#df68a4" stroke="#df68a4"></path><path d="M581 141L568 102L562 186Z" fill="#fb6779" stroke="#fb6779"></path><path d="M1008 727L892 637L813 714Z" fill="#af73be" stroke="#af73be"></path><path d="M288 546L353 562L362 502Z" fill="#fb6779" stroke="#fb6779"></path><path d="M362 502L353 562L384 570Z" fill="#3d7fb3" stroke="#3d7fb3"></path><path d="M384 570L365 603L437 671Z" fill="#757cc3" stroke="#757cc3"></path><path d="M353 562L365 603L384 570Z" fill="#3d7fb3" stroke="#3d7fb3"></path><path d="M443 820L509 836L481 717Z" fill="#c96db3" stroke="#c96db3"></path><path d="M386 350L340 445L427 435Z" fill="#ff6f61" stroke="#ff6f61"></path><path d="M346 452L294 491L362 502Z" fill="#9278c3" stroke="#9278c3"></path><path d="M1106 424L1022 406L1048 461Z" fill="#f06590" stroke="#f06590"></path><path d="M1058 661L1067 635L1036 613Z" fill="#3d7fb3" stroke="#3d7fb3"></path><path d="M509 836L617 842L604 803Z" fill="#9278c3" stroke="#9278c3"></path><path d="M604 803L617 842L657 774Z" fill="#297ea6" stroke="#297ea6"></path><path d="M879 848L1008 727L813 714Z" fill="#757cc3" stroke="#757cc3"></path><path d="M1033 676L1058 661L1036 613Z" fill="#9278c3" stroke="#9278c3"></path><path d="M1103 632L1091 578L1071 589Z" fill="#577ebd" stroke="#577ebd"></path><path d="M1071 589L1091 578L1016 575Z" fill="#ff6f61" stroke="#ff6f61"></path><path d="M1089 375L1084 335L1022 406Z" fill="#df68a4" stroke="#df68a4"></path><path d="M617 842L669 855L657 774Z" fill="#af73be" stroke="#af73be"></path><path d="M1162 445L1106 424L1048 461Z" fill="#ff6f61" stroke="#ff6f61"></path><path d="M1151 348L1110 282L1084 335Z" fill="#af73be" stroke="#af73be"></path><path d="M1035 720L1058 661L1033 676Z" fill="#9278c3" stroke="#9278c3"></path><path d="M1067 635L1103 632L1071 589Z" fill="#9278c3" stroke="#9278c3"></path><path d="M1079 302L1060 279L1033 273Z" fill="#3d7fb3" stroke="#3d7fb3"></path><path d="M1038 193L870 201L983 264Z" fill="#af73be" stroke="#af73be"></path><path d="M736 899L808 850L778 835Z" fill="#af73be" stroke="#af73be"></path><path d="M778 835L808 850L776 786Z" fill="#297ea6" stroke="#297ea6"></path><path d="M1103 632L1075 640L1058 661Z" fill="#3d7fb3" stroke="#3d7fb3"></path><path d="M1058 661L1075 640L1067 635Z" fill="#577ebd" stroke="#577ebd"></path><path d="M420 206L550 231L562 186Z" fill="#297ea6" stroke="#297ea6"></path><path d="M386 350L292 401L340 445Z" fill="#ff6f61" stroke="#ff6f61"></path><path d="M694 12L583 119L742 146Z" fill="#df68a4" stroke="#df68a4"></path><path d="M583 119L568 102L581 141Z" fill="#577ebd" stroke="#577ebd"></path><path d="M1084 335L1079 302L1033 273Z" fill="#af73be" stroke="#af73be"></path><path d="M1110 282L1079 302L1084 335Z" fill="#f06590" stroke="#f06590"></path><path d="M444 117L420 206L562 186Z" fill="#577ebd" stroke="#577ebd"></path><path d="M813 71L783 74L844 129Z" fill="#af73be" stroke="#af73be"></path><path d="M844 129L783 74L742 146Z" fill="#fb6779" stroke="#fb6779"></path><path d="M1038 193L983 264L1033 273Z" fill="#9278c3" stroke="#9278c3"></path><path d="M1101 798L1035 720L1008 727Z" fill="#fb6779" stroke="#fb6779"></path><path d="M1008 727L1035 720L1033 676Z" fill="#297ea6" stroke="#297ea6"></path><path d="M886 105L813 71L844 129Z" fill="#fb6779" stroke="#fb6779"></path><path d="M900 868L879 848L908 887Z" fill="#297ea6" stroke="#297ea6"></path><path d="M808 850L879 848L776 786Z" fill="#f06590" stroke="#f06590"></path><path d="M1075 640L1103 632L1067 635Z" fill="#ff6f61" stroke="#ff6f61"></path><path d="M1091 578L1162 445L1048 461Z" fill="#af73be" stroke="#af73be"></path><path d="M1177 713L1103 632L1058 661Z" fill="#fb6779" stroke="#fb6779"></path><path d="M1052 206L1033 273L1060 279Z" fill="#fb6779" stroke="#fb6779"></path><path d="M1052 206L1038 193L1033 273Z" fill="#df68a4" stroke="#df68a4"></path><path d="M481 717L509 836L518 724Z" fill="#c96db3" stroke="#c96db3"></path><path d="M735 902L736 899L669 855Z" fill="#fb6779" stroke="#fb6779"></path><path d="M362 711L481 717L437 671Z" fill="#577ebd" stroke="#577ebd"></path><path d="M1127 264L1052 206L1060 279Z" fill="#297ea6" stroke="#297ea6"></path><path d="M340 445L294 491L346 452Z" fill="#df68a4" stroke="#df68a4"></path><path d="M353 562L288 546L365 603Z" fill="#9278c3" stroke="#9278c3"></path><path d="M365 603L362 711L437 671Z" fill="#757cc3" stroke="#757cc3"></path><path d="M292 401L294 491L340 445Z" fill="#df68a4" stroke="#df68a4"></path><path d="M735 902L669 855L724 947Z" fill="#df68a4" stroke="#df68a4"></path><path d="M669 855L736 899L778 835Z" fill="#df68a4" stroke="#df68a4"></path><path d="M242 683L362 711L365 603Z" fill="#f06590" stroke="#f06590"></path><path d="M287 362L292 401L386 350Z" fill="#c96db3" stroke="#c96db3"></path><path d="M595 917L669 855L617 842Z" fill="#9278c3" stroke="#9278c3"></path><path d="M736 899L735 902L808 850Z" fill="#c96db3" stroke="#c96db3"></path><path d="M1151 348L1084 335L1089 375Z" fill="#757cc3" stroke="#757cc3"></path><path d="M1079 302L1110 282L1060 279Z" fill="#ff6f61" stroke="#ff6f61"></path><path d="M1151 348L1089 375L1106 424Z" fill="#ff6f61" stroke="#ff6f61"></path><path d="M420 206L361 220L374 273Z" fill="#757cc3" stroke="#757cc3"></path><path d="M292 307L287 362L386 350Z" fill="#c96db3" stroke="#c96db3"></path><path d="M397 157L361 220L420 206Z" fill="#9278c3" stroke="#9278c3"></path><path d="M261 487L288 546L294 491Z" fill="#c96db3" stroke="#c96db3"></path><path d="M294 491L288 546L362 502Z" fill="#fb6779" stroke="#fb6779"></path><path d="M908 887L879 848L808 850Z" fill="#df68a4" stroke="#df68a4"></path><path d="M879 848L931 853L1008 727Z" fill="#3d7fb3" stroke="#3d7fb3"></path><path d="M900 868L931 853L879 848Z" fill="#3d7fb3" stroke="#3d7fb3"></path><path d="M1066 123L1045 170L1082 121Z" fill="#3d7fb3" stroke="#3d7fb3"></path><path d="M1052 206L1045 170L1038 193Z" fill="#3d7fb3" stroke="#3d7fb3"></path><path d="M1038 193L1045 170L886 105Z" fill="#c96db3" stroke="#c96db3"></path><path d="M816 0L783 74L813 71Z" fill="#577ebd" stroke="#577ebd"></path><path d="M1185 597L1162 445L1091 578Z" fill="#577ebd" stroke="#577ebd"></path><path d="M292 307L386 350L374 273Z" fill="#ff6f61" stroke="#ff6f61"></path><path d="M292 401L261 487L294 491Z" fill="#c96db3" stroke="#c96db3"></path><path d="M482 48L444 117L568 102Z" fill="#577ebd" stroke="#577ebd"></path><path d="M568 102L444 117L562 186Z" fill="#c96db3" stroke="#c96db3"></path><path d="M362 711L443 820L481 717Z" fill="#297ea6" stroke="#297ea6"></path><path d="M509 836L504 861L617 842Z" fill="#fb6779" stroke="#fb6779"></path><path d="M443 820L504 861L509 836Z" fill="#af73be" stroke="#af73be"></path><path d="M444 117L397 157L420 206Z" fill="#f06590" stroke="#f06590"></path><path d="M1175 375L1151 348L1106 424Z" fill="#297ea6" stroke="#297ea6"></path><path d="M1110 282L1127 264L1060 279Z" fill="#577ebd" stroke="#577ebd"></path><path d="M274 260L374 273L361 220Z" fill="#297ea6" stroke="#297ea6"></path><path d="M274 260L292 307L374 273Z" fill="#757cc3" stroke="#757cc3"></path><path d="M1151 348L1127 264L1110 282Z" fill="#af73be" stroke="#af73be"></path><path d="M710 1L694 12L783 74Z" fill="#df68a4" stroke="#df68a4"></path><path d="M783 74L694 12L742 146Z" fill="#297ea6" stroke="#297ea6"></path><path d="M710 1L783 74L816 0Z" fill="#577ebd" stroke="#577ebd"></path><path d="M234 392L261 487L292 401Z" fill="#fb6779" stroke="#fb6779"></path><path d="M288 546L242 683L365 603Z" fill="#577ebd" stroke="#577ebd"></path><path d="M234 392L292 401L287 362Z" fill="#af73be" stroke="#af73be"></path><path d="M772 991L908 887L808 850Z" fill="#ff6f61" stroke="#ff6f61"></path><path d="M900 868L908 887L931 853Z" fill="#af73be" stroke="#af73be"></path><path d="M931 853L981 858L1008 727Z" fill="#af73be" stroke="#af73be"></path><path d="M1177 713L1185 597L1103 632Z" fill="#df68a4" stroke="#df68a4"></path><path d="M504 861L595 917L617 842Z" fill="#577ebd" stroke="#577ebd"></path><path d="M735 902L772 991L808 850Z" fill="#c96db3" stroke="#c96db3"></path><path d="M1162 445L1175 375L1106 424Z" fill="#af73be" stroke="#af73be"></path><path d="M1151 348L1208 342L1127 264Z" fill="#fb6779" stroke="#fb6779"></path><path d="M816 0L813 71L846 0Z" fill="#f06590" stroke="#f06590"></path><path d="M694 12L622 0L583 119Z" fill="#fb6779" stroke="#fb6779"></path><path d="M710 1L698 0L694 12Z" fill="#757cc3" stroke="#757cc3"></path><path d="M973 897L981 858L931 853Z" fill="#df68a4" stroke="#df68a4"></path><path d="M259 154L340 181L259 100Z" fill="#f06590" stroke="#f06590"></path><path d="M397 157L340 181L361 220Z" fill="#fb6779" stroke="#fb6779"></path><path d="M595 917L724 947L669 855Z" fill="#af73be" stroke="#af73be"></path><path d="M816 0L695 -9L710 1Z" fill="#577ebd" stroke="#577ebd"></path><path d="M710 1L695 -9L698 0Z" fill="#ff6f61" stroke="#ff6f61"></path><path d="M698 0L695 -9L694 12Z" fill="#df68a4" stroke="#df68a4"></path><path d="M695 -9L622 0L694 12Z" fill="#fb6779" stroke="#fb6779"></path><path d="M259 100L340 181L294 48Z" fill="#df68a4" stroke="#df68a4"></path><path d="M846 0L813 71L848 0Z" fill="#577ebd" stroke="#577ebd"></path><path d="M572 0L482 48L568 102Z" fill="#577ebd" stroke="#577ebd"></path><path d="M1177 713L1058 661L1035 720Z" fill="#df68a4" stroke="#df68a4"></path><path d="M1103 632L1185 597L1091 578Z" fill="#af73be" stroke="#af73be"></path><path d="M1263 358L1208 342L1175 375Z" fill="#af73be" stroke="#af73be"></path><path d="M848 0L813 71L886 105Z" fill="#c96db3" stroke="#c96db3"></path><path d="M816 0L846 0L695 -9Z" fill="#9278c3" stroke="#9278c3"></path><path d="M892 0L848 0L886 105Z" fill="#577ebd" stroke="#577ebd"></path><path d="M846 0L848 0L695 -9Z" fill="#3d7fb3" stroke="#3d7fb3"></path><path d="M1082 121L1045 170L1052 206Z" fill="#297ea6" stroke="#297ea6"></path><path d="M1045 170L1061 101L886 105Z" fill="#af73be" stroke="#af73be"></path><path d="M167 354L234 392L292 307Z" fill="#fb6779" stroke="#fb6779"></path><path d="M292 307L234 392L287 362Z" fill="#3d7fb3" stroke="#3d7fb3"></path><path d="M295 199L274 260L361 220Z" fill="#297ea6" stroke="#297ea6"></path><path d="M234 392L231 529L261 487Z" fill="#f06590" stroke="#f06590"></path><path d="M261 487L231 529L288 546Z" fill="#df68a4" stroke="#df68a4"></path><path d="M695 -9L572 0L622 0Z" fill="#9278c3" stroke="#9278c3"></path><path d="M622 0L572 0L568 102Z" fill="#f06590" stroke="#f06590"></path><path d="M229 213L271 262L274 260Z" fill="#ff6f61" stroke="#ff6f61"></path><path d="M274 260L271 262L292 307Z" fill="#297ea6" stroke="#297ea6"></path><path d="M908 887L973 897L931 853Z" fill="#df68a4" stroke="#df68a4"></path><path d="M981 858L1021 871L1008 727Z" fill="#3d7fb3" stroke="#3d7fb3"></path><path d="M999 928L973 897L908 887Z" fill="#3d7fb3" stroke="#3d7fb3"></path><path d="M915 0L892 0L886 105Z" fill="#c96db3" stroke="#c96db3"></path><path d="M848 0L892 0L695 -9Z" fill="#df68a4" stroke="#df68a4"></path><path d="M340 181L295 199L361 220Z" fill="#297ea6" stroke="#297ea6"></path><path d="M259 154L295 199L340 181Z" fill="#f06590" stroke="#f06590"></path><path d="M1082 121L1061 101L1066 123Z" fill="#f06590" stroke="#f06590"></path><path d="M1066 123L1061 101L1045 170Z" fill="#577ebd" stroke="#577ebd"></path><path d="M1082 121L1052 206L1127 264Z" fill="#9278c3" stroke="#9278c3"></path><path d="M1201 226L1082 121L1127 264Z" fill="#577ebd" stroke="#577ebd"></path><path d="M973 897L1021 871L981 858Z" fill="#9278c3" stroke="#9278c3"></path><path d="M1021 871L1101 798L1008 727Z" fill="#ff6f61" stroke="#ff6f61"></path><path d="M1263 358L1175 375L1162 445Z" fill="#757cc3" stroke="#757cc3"></path><path d="M1175 375L1208 342L1151 348Z" fill="#f06590" stroke="#f06590"></path><path d="M1061 101L915 0L886 105Z" fill="#297ea6" stroke="#297ea6"></path><path d="M892 0L915 0L695 -9Z" fill="#ff6f61" stroke="#ff6f61"></path><path d="M362 711L330 798L443 820Z" fill="#9278c3" stroke="#9278c3"></path><path d="M443 820L436 912L504 861Z" fill="#ff6f61" stroke="#ff6f61"></path><path d="M504 861L578 960L595 917Z" fill="#3d7fb3" stroke="#3d7fb3"></path><path d="M277 789L330 798L362 711Z" fill="#f06590" stroke="#f06590"></path><path d="M446 940L578 960L504 861Z" fill="#297ea6" stroke="#297ea6"></path><path d="M595 917L643 1013L724 947Z" fill="#9278c3" stroke="#9278c3"></path><path d="M1223 599L1223 581L1185 597Z" fill="#9278c3" stroke="#9278c3"></path><path d="M1185 597L1223 581L1162 445Z" fill="#3d7fb3" stroke="#3d7fb3"></path><path d="M999 928L1034 879L1021 871Z" fill="#577ebd" stroke="#577ebd"></path><path d="M1021 871L1076 865L1101 798Z" fill="#af73be" stroke="#af73be"></path><path d="M1212 719L1177 713L1142 830Z" fill="#9278c3" stroke="#9278c3"></path><path d="M1101 798L1177 713L1035 720Z" fill="#f06590" stroke="#f06590"></path><path d="M1228 683L1223 599L1185 597Z" fill="#577ebd" stroke="#577ebd"></path><path d="M231 529L242 683L288 546Z" fill="#af73be" stroke="#af73be"></path><path d="M643 1013L772 991L724 947Z" fill="#df68a4" stroke="#df68a4"></path><path d="M724 947L772 991L735 902Z" fill="#577ebd" stroke="#577ebd"></path><path d="M973 897L999 928L1021 871Z" fill="#ff6f61" stroke="#ff6f61"></path><path d="M308 849L379 870L330 798Z" fill="#c96db3" stroke="#c96db3"></path><path d="M330 798L379 870L443 820Z" fill="#757cc3" stroke="#757cc3"></path><path d="M379 870L436 912L443 820Z" fill="#fb6779" stroke="#fb6779"></path><path d="M1034 879L1076 865L1021 871Z" fill="#ff6f61" stroke="#ff6f61"></path><path d="M1057 938L1076 865L1034 879Z" fill="#c96db3" stroke="#c96db3"></path><path d="M922 1036L999 928L908 887Z" fill="#297ea6" stroke="#297ea6"></path><path d="M1131 0L1031 0L1061 101Z" fill="#f06590" stroke="#f06590"></path><path d="M1208 342L1201 226L1127 264Z" fill="#ff6f61" stroke="#ff6f61"></path><path d="M1239 241L1201 226L1208 342Z" fill="#9278c3" stroke="#9278c3"></path><path d="M436 912L446 940L504 861Z" fill="#297ea6" stroke="#297ea6"></path><path d="M578 960L643 1013L595 917Z" fill="#af73be" stroke="#af73be"></path><path d="M440 951L446 940L436 912Z" fill="#ff6f61" stroke="#ff6f61"></path><path d="M257 772L277 789L362 711Z" fill="#df68a4" stroke="#df68a4"></path><path d="M428 959L440 951L436 912Z" fill="#af73be" stroke="#af73be"></path><path d="M578 1080L643 1013L578 960Z" fill="#f06590" stroke="#f06590"></path><path d="M242 683L257 772L362 711Z" fill="#df68a4" stroke="#df68a4"></path><path d="M428 959L436 912L389 979Z" fill="#fb6779" stroke="#fb6779"></path><path d="M259 154L229 213L295 199Z" fill="#757cc3" stroke="#757cc3"></path><path d="M295 199L229 213L274 260Z" fill="#3d7fb3" stroke="#3d7fb3"></path><path d="M271 262L167 354L292 307Z" fill="#9278c3" stroke="#9278c3"></path><path d="M234 392L171 556L231 529Z" fill="#757cc3" stroke="#757cc3"></path><path d="M1269 546L1162 445L1223 581Z" fill="#3d7fb3" stroke="#3d7fb3"></path><path d="M1177 713L1228 683L1185 597Z" fill="#577ebd" stroke="#577ebd"></path><path d="M1212 719L1228 683L1177 713Z" fill="#ff6f61" stroke="#ff6f61"></path><path d="M1142 830L1177 713L1101 798Z" fill="#757cc3" stroke="#757cc3"></path><path d="M167 354L171 556L234 392Z" fill="#c96db3" stroke="#c96db3"></path><path d="M231 529L173 652L242 683Z" fill="#df68a4" stroke="#df68a4"></path><path d="M147 738L214 802L257 772Z" fill="#ff6f61" stroke="#ff6f61"></path><path d="M1269 546L1223 581L1272 598Z" fill="#ff6f61" stroke="#ff6f61"></path><path d="M1314 456L1263 358L1162 445Z" fill="#fb6779" stroke="#fb6779"></path><path d="M1272 598L1223 581L1223 599Z" fill="#9278c3" stroke="#9278c3"></path><path d="M1170 875L1142 830L1076 865Z" fill="#fb6779" stroke="#fb6779"></path><path d="M1076 865L1142 830L1101 798Z" fill="#757cc3" stroke="#757cc3"></path><path d="M308 849L330 798L277 789Z" fill="#fb6779" stroke="#fb6779"></path><path d="M446 940L440 951L578 960Z" fill="#fb6779" stroke="#fb6779"></path><path d="M363 0L397 157L444 117Z" fill="#c96db3" stroke="#c96db3"></path><path d="M410 0L444 117L482 48Z" fill="#df68a4" stroke="#df68a4"></path><path d="M214 802L308 849L277 789Z" fill="#af73be" stroke="#af73be"></path><path d="M695 -9L410 0L572 0Z" fill="#df68a4" stroke="#df68a4"></path><path d="M572 0L410 0L482 48Z" fill="#c96db3" stroke="#c96db3"></path><path d="M131 255L167 354L271 262Z" fill="#df68a4" stroke="#df68a4"></path><path d="M1061 101L1031 0L915 0Z" fill="#df68a4" stroke="#df68a4"></path><path d="M915 0L1031 0L695 -9Z" fill="#3d7fb3" stroke="#3d7fb3"></path><path d="M1135 89L1061 101L1082 121Z" fill="#577ebd" stroke="#577ebd"></path><path d="M1201 226L1135 89L1082 121Z" fill="#fb6779" stroke="#fb6779"></path><path d="M1263 358L1239 241L1208 342Z" fill="#757cc3" stroke="#757cc3"></path><path d="M1230 147L1172 83L1135 89Z" fill="#3d7fb3" stroke="#3d7fb3"></path><path d="M1307 603L1272 598L1228 683Z" fill="#af73be" stroke="#af73be"></path><path d="M1228 683L1272 598L1223 599Z" fill="#fb6779" stroke="#fb6779"></path><path d="M1306 353L1291 348L1263 358Z" fill="#3d7fb3" stroke="#3d7fb3"></path><path d="M389 979L436 912L379 870Z" fill="#f06590" stroke="#f06590"></path><path d="M571 1080L574 1080L578 960Z" fill="#577ebd" stroke="#577ebd"></path><path d="M1142 830L1229 722L1212 719Z" fill="#f06590" stroke="#f06590"></path><path d="M1212 719L1229 722L1228 683Z" fill="#577ebd" stroke="#577ebd"></path><path d="M804 1056L874 1021L772 991Z" fill="#757cc3" stroke="#757cc3"></path><path d="M772 991L874 1021L908 887Z" fill="#9278c3" stroke="#9278c3"></path><path d="M999 928L1057 938L1034 879Z" fill="#fb6779" stroke="#fb6779"></path><path d="M171 556L173 652L231 529Z" fill="#c96db3" stroke="#c96db3"></path><path d="M257 772L214 802L277 789Z" fill="#9278c3" stroke="#9278c3"></path><path d="M1248 214L1240 225L1239 241Z" fill="#fb6779" stroke="#fb6779"></path><path d="M1239 241L1240 225L1201 226Z" fill="#df68a4" stroke="#df68a4"></path><path d="M1033 1016L1057 938L999 928Z" fill="#ff6f61" stroke="#ff6f61"></path><path d="M1142 830L1311 806L1229 722Z" fill="#df68a4" stroke="#df68a4"></path><path d="M1314 456L1162 445L1269 546Z" fill="#577ebd" stroke="#577ebd"></path><path d="M1263 358L1291 348L1239 241Z" fill="#fb6779" stroke="#fb6779"></path><path d="M1382 172L1248 214L1239 241Z" fill="#df68a4" stroke="#df68a4"></path><path d="M1240 225L1248 214L1201 226Z" fill="#af73be" stroke="#af73be"></path><path d="M695 -9L363 0L410 0Z" fill="#577ebd" stroke="#577ebd"></path><path d="M410 0L363 0L444 117Z" fill="#ff6f61" stroke="#ff6f61"></path><path d="M65 550L149 618L171 556Z" fill="#757cc3" stroke="#757cc3"></path><path d="M171 556L149 618L173 652Z" fill="#757cc3" stroke="#757cc3"></path><path d="M147 738L257 772L242 683Z" fill="#af73be" stroke="#af73be"></path><path d="M294 48L340 181L397 157Z" fill="#af73be" stroke="#af73be"></path><path d="M259 154L196 133L229 213Z" fill="#9278c3" stroke="#9278c3"></path><path d="M131 255L133 347L167 354Z" fill="#af73be" stroke="#af73be"></path><path d="M699 1080L804 1056L772 991Z" fill="#af73be" stroke="#af73be"></path><path d="M874 1021L922 1036L908 887Z" fill="#577ebd" stroke="#577ebd"></path><path d="M699 1080L772 991L643 1013Z" fill="#f06590" stroke="#f06590"></path><path d="M1230 147L1135 89L1201 226Z" fill="#ff6f61" stroke="#ff6f61"></path><path d="M1135 89L1131 0L1061 101Z" fill="#577ebd" stroke="#577ebd"></path><path d="M1330 497L1314 456L1269 546Z" fill="#c96db3" stroke="#c96db3"></path><path d="M363 0L294 48L397 157Z" fill="#297ea6" stroke="#297ea6"></path><path d="M131 255L271 262L229 213Z" fill="#9278c3" stroke="#9278c3"></path><path d="M167 354L133 347L171 556Z" fill="#fb6779" stroke="#fb6779"></path><path d="M1314 456L1306 353L1263 358Z" fill="#fb6779" stroke="#fb6779"></path><path d="M1291 348L1306 353L1239 241Z" fill="#297ea6" stroke="#297ea6"></path><path d="M881 1080L922 1036L874 1021Z" fill="#af73be" stroke="#af73be"></path><path d="M1285 717L1307 603L1228 683Z" fill="#ff6f61" stroke="#ff6f61"></path><path d="M1272 598L1307 603L1269 546Z" fill="#9278c3" stroke="#9278c3"></path><path d="M1382 172L1230 147L1248 214Z" fill="#fb6779" stroke="#fb6779"></path><path d="M1248 214L1230 147L1201 226Z" fill="#757cc3" stroke="#757cc3"></path><path d="M142 693L242 683L173 652Z" fill="#af73be" stroke="#af73be"></path><path d="M377 983L389 979L379 870Z" fill="#3d7fb3" stroke="#3d7fb3"></path><path d="M377 983L379 870L286 952Z" fill="#fb6779" stroke="#fb6779"></path><path d="M428 959L414 996L440 951Z" fill="#297ea6" stroke="#297ea6"></path><path d="M1091 962L1170 875L1076 865Z" fill="#af73be" stroke="#af73be"></path><path d="M1229 722L1285 717L1228 683Z" fill="#3d7fb3" stroke="#3d7fb3"></path><path d="M1091 962L1076 865L1057 938Z" fill="#df68a4" stroke="#df68a4"></path><path d="M389 979L414 996L428 959Z" fill="#c96db3" stroke="#c96db3"></path><path d="M578 1080L699 1080L643 1013Z" fill="#297ea6" stroke="#297ea6"></path><path d="M804 1056L829 1075L874 1021Z" fill="#757cc3" stroke="#757cc3"></path><path d="M1307 603L1330 497L1269 546Z" fill="#757cc3" stroke="#757cc3"></path><path d="M1314 456L1413 353L1306 353Z" fill="#fb6779" stroke="#fb6779"></path><path d="M699 1080L829 1075L804 1056Z" fill="#af73be" stroke="#af73be"></path><path d="M286 952L379 870L308 849Z" fill="#ff6f61" stroke="#ff6f61"></path><path d="M389 979L377 983L414 996Z" fill="#ff6f61" stroke="#ff6f61"></path><path d="M1033 1016L1091 962L1057 938Z" fill="#fb6779" stroke="#fb6779"></path><path d="M149 618L142 693L173 652Z" fill="#af73be" stroke="#af73be"></path><path d="M119 729L142 693L44 692Z" fill="#297ea6" stroke="#297ea6"></path><path d="M1311 806L1285 717L1229 722Z" fill="#3d7fb3" stroke="#3d7fb3"></path><path d="M1445 552L1440 500L1330 497Z" fill="#577ebd" stroke="#577ebd"></path><path d="M192 125L196 133L259 100Z" fill="#ff6f61" stroke="#ff6f61"></path><path d="M259 100L196 133L259 154Z" fill="#297ea6" stroke="#297ea6"></path><path d="M363 0L311 0L294 48Z" fill="#9278c3" stroke="#9278c3"></path><path d="M159 100L192 125L259 100Z" fill="#c96db3" stroke="#c96db3"></path><path d="M695 -9L311 0L363 0Z" fill="#fb6779" stroke="#fb6779"></path><path d="M699 1080L837 1080L829 1075Z" fill="#f06590" stroke="#f06590"></path><path d="M829 1075L837 1080L874 1021Z" fill="#9278c3" stroke="#9278c3"></path><path d="M922 1036L1033 1016L999 928Z" fill="#577ebd" stroke="#577ebd"></path><path d="M1172 83L1131 0L1135 89Z" fill="#fb6779" stroke="#fb6779"></path><path d="M1031 0L1440 -12L695 -9Z" fill="#3d7fb3" stroke="#3d7fb3"></path><path d="M1165 0L1131 0L1172 83Z" fill="#f06590" stroke="#f06590"></path><path d="M196 133L131 255L229 213Z" fill="#577ebd" stroke="#577ebd"></path><path d="M578 960L517 1080L571 1080Z" fill="#f06590" stroke="#f06590"></path><path d="M574 1080L578 1080L578 960Z" fill="#577ebd" stroke="#577ebd"></path><path d="M578 960L440 951L517 1080Z" fill="#3d7fb3" stroke="#3d7fb3"></path><path d="M159 100L259 100L169 0Z" fill="#757cc3" stroke="#757cc3"></path><path d="M196 133L94 150L131 255Z" fill="#af73be" stroke="#af73be"></path><path d="M517 1080L440 951L414 996Z" fill="#757cc3" stroke="#757cc3"></path><path d="M993 1080L1033 1016L922 1036Z" fill="#577ebd" stroke="#577ebd"></path><path d="M142 693L147 738L242 683Z" fill="#3d7fb3" stroke="#3d7fb3"></path><path d="M214 802L286 952L308 849Z" fill="#ff6f61" stroke="#ff6f61"></path><path d="M695 -9L294 0L311 0Z" fill="#297ea6" stroke="#297ea6"></path><path d="M311 0L294 0L294 48Z" fill="#fb6779" stroke="#fb6779"></path><path d="M837 1080L881 1080L874 1021Z" fill="#ff6f61" stroke="#ff6f61"></path><path d="M356 1080L517 1080L414 996Z" fill="#ff6f61" stroke="#ff6f61"></path><path d="M61 191L99 287L131 255Z" fill="#c96db3" stroke="#c96db3"></path><path d="M131 255L99 287L133 347Z" fill="#c96db3" stroke="#c96db3"></path><path d="M133 347L65 550L171 556Z" fill="#c96db3" stroke="#c96db3"></path><path d="M1327 0L1165 0L1172 83Z" fill="#f06590" stroke="#f06590"></path><path d="M1131 0L1440 -12L1031 0Z" fill="#757cc3" stroke="#757cc3"></path><path d="M262 1013L286 952L148 980Z" fill="#fb6779" stroke="#fb6779"></path><path d="M377 983L356 1080L414 996Z" fill="#757cc3" stroke="#757cc3"></path><path d="M142 693L119 729L147 738Z" fill="#df68a4" stroke="#df68a4"></path><path d="M147 738L80 821L214 802Z" fill="#c96db3" stroke="#c96db3"></path><path d="M44 692L142 693L149 618Z" fill="#df68a4" stroke="#df68a4"></path><path d="M4 514L65 550L2 507Z" fill="#fb6779" stroke="#fb6779"></path><path d="M262 1013L322 1007L286 952Z" fill="#f06590" stroke="#f06590"></path><path d="M286 952L322 1007L377 983Z" fill="#df68a4" stroke="#df68a4"></path><path d="M192 125L94 150L196 133Z" fill="#fb6779" stroke="#fb6779"></path><path d="M169 0L259 100L294 48Z" fill="#fb6779" stroke="#fb6779"></path><path d="M881 1080L993 1080L922 1036Z" fill="#9278c3" stroke="#9278c3"></path><path d="M1033 1016L1044 1080L1091 962Z" fill="#c96db3" stroke="#c96db3"></path><path d="M1284 913L1311 806L1170 875Z" fill="#297ea6" stroke="#297ea6"></path><path d="M1284 913L1170 875L1288 936Z" fill="#af73be" stroke="#af73be"></path><path d="M1170 875L1311 806L1142 830Z" fill="#f06590" stroke="#f06590"></path><path d="M1285 717L1348 754L1307 603Z" fill="#9278c3" stroke="#9278c3"></path><path d="M993 1080L1021 1080L1033 1016Z" fill="#9278c3" stroke="#9278c3"></path><path d="M1311 806L1348 754L1285 717Z" fill="#fb6779" stroke="#fb6779"></path><path d="M1021 1080L1044 1080L1033 1016Z" fill="#df68a4" stroke="#df68a4"></path><path d="M44 692L87 757L119 729Z" fill="#577ebd" stroke="#577ebd"></path><path d="M119 729L87 757L147 738Z" fill="#c96db3" stroke="#c96db3"></path><path d="M159 100L94 150L192 125Z" fill="#ff6f61" stroke="#ff6f61"></path><path d="M99 287L37 293L133 347Z" fill="#3d7fb3" stroke="#3d7fb3"></path><path d="M61 191L37 293L99 287Z" fill="#297ea6" stroke="#297ea6"></path><path d="M65 550L44 692L149 618Z" fill="#297ea6" stroke="#297ea6"></path><path d="M1440 400L1413 353L1314 456Z" fill="#f06590" stroke="#f06590"></path><path d="M1306 353L1382 172L1239 241Z" fill="#9278c3" stroke="#9278c3"></path><path d="M1230 147L1327 0L1172 83Z" fill="#fb6779" stroke="#fb6779"></path><path d="M1440 500L1314 456L1330 497Z" fill="#3d7fb3" stroke="#3d7fb3"></path><path d="M148 980L286 952L214 802Z" fill="#577ebd" stroke="#577ebd"></path><path d="M322 1007L356 1080L377 983Z" fill="#f06590" stroke="#f06590"></path><path d="M0 611L44 692L65 550Z" fill="#9278c3" stroke="#9278c3"></path><path d="M257 1054L356 1080L322 1007Z" fill="#ff6f61" stroke="#ff6f61"></path><path d="M94 150L61 191L131 255Z" fill="#fb6779" stroke="#fb6779"></path><path d="M2 507L65 550L0 495Z" fill="#3d7fb3" stroke="#3d7fb3"></path><path d="M0 495L65 550L133 347Z" fill="#fb6779" stroke="#fb6779"></path><path d="M4 514L0 545L65 550Z" fill="#ff6f61" stroke="#ff6f61"></path><path d="M37 293L0 495L133 347Z" fill="#ff6f61" stroke="#ff6f61"></path><path d="M1288 936L1170 875L1288 940Z" fill="#757cc3" stroke="#757cc3"></path><path d="M1311 806L1385 775L1348 754Z" fill="#ff6f61" stroke="#ff6f61"></path><path d="M695 -9L169 0L294 0Z" fill="#af73be" stroke="#af73be"></path><path d="M294 0L169 0L294 48Z" fill="#577ebd" stroke="#577ebd"></path><path d="M159 100L71 49L94 150Z" fill="#ff6f61" stroke="#ff6f61"></path><path d="M0 99L0 228L61 191Z" fill="#297ea6" stroke="#297ea6"></path><path d="M1440 580L1330 497L1307 603Z" fill="#297ea6" stroke="#297ea6"></path><path d="M0 495L0 545L2 507Z" fill="#f06590" stroke="#f06590"></path><path d="M2 507L0 545L4 514Z" fill="#fb6779" stroke="#fb6779"></path><path d="M1440 500L1440 400L1314 456Z" fill="#3d7fb3" stroke="#3d7fb3"></path><path d="M1440 226L1306 353L1413 353Z" fill="#ff6f61" stroke="#ff6f61"></path><path d="M1440 226L1382 172L1306 353Z" fill="#297ea6" stroke="#297ea6"></path><path d="M58 800L87 757L0 771Z" fill="#3d7fb3" stroke="#3d7fb3"></path><path d="M58 800L80 821L87 757Z" fill="#297ea6" stroke="#297ea6"></path><path d="M87 757L80 821L147 738Z" fill="#757cc3" stroke="#757cc3"></path><path d="M1440 588L1307 603L1440 626Z" fill="#9278c3" stroke="#9278c3"></path><path d="M1440 588L1440 580L1307 603Z" fill="#f06590" stroke="#f06590"></path><path d="M1440 500L1445 552L1440 400Z" fill="#297ea6" stroke="#297ea6"></path><path d="M1440 580L1445 552L1330 497Z" fill="#757cc3" stroke="#757cc3"></path><path d="M1445 590L1440 588L1440 626Z" fill="#577ebd" stroke="#577ebd"></path><path d="M1440 580L1445 590L1445 552Z" fill="#af73be" stroke="#af73be"></path><path d="M0 545L0 611L65 550Z" fill="#ff6f61" stroke="#ff6f61"></path><path d="M1397 776L1440 798L1440 797Z" fill="#df68a4" stroke="#df68a4"></path><path d="M1440 626L1307 603L1348 754Z" fill="#fb6779" stroke="#fb6779"></path><path d="M1440 588L1445 590L1440 580Z" fill="#297ea6" stroke="#297ea6"></path><path d="M1288 940L1170 875L1091 962Z" fill="#f06590" stroke="#f06590"></path><path d="M1397 776L1423 865L1440 798Z" fill="#577ebd" stroke="#577ebd"></path><path d="M1440 727L1440 626L1348 754Z" fill="#c96db3" stroke="#c96db3"></path><path d="M0 722L87 757L44 692Z" fill="#577ebd" stroke="#577ebd"></path><path d="M221 1080L257 1054L262 1013Z" fill="#af73be" stroke="#af73be"></path><path d="M1184 1080L1288 940L1091 962Z" fill="#757cc3" stroke="#757cc3"></path><path d="M1385 775L1423 865L1397 776Z" fill="#3d7fb3" stroke="#3d7fb3"></path><path d="M0 269L0 293L37 293Z" fill="#297ea6" stroke="#297ea6"></path><path d="M37 293L0 293L0 495Z" fill="#577ebd" stroke="#577ebd"></path><path d="M0 269L37 293L0 228Z" fill="#577ebd" stroke="#577ebd"></path><path d="M1317 963L1284 913L1288 936Z" fill="#3d7fb3" stroke="#3d7fb3"></path><path d="M1385 775L1440 727L1348 754Z" fill="#297ea6" stroke="#297ea6"></path><path d="M148 980L214 802L87 948Z" fill="#297ea6" stroke="#297ea6"></path><path d="M262 1013L257 1054L322 1007Z" fill="#fb6779" stroke="#fb6779"></path><path d="M0 228L37 293L61 191Z" fill="#297ea6" stroke="#297ea6"></path><path d="M695 -9L132 0L169 0Z" fill="#f06590" stroke="#f06590"></path><path d="M169 0L132 0L159 100Z" fill="#297ea6" stroke="#297ea6"></path><path d="M0 611L0 701L44 692Z" fill="#757cc3" stroke="#757cc3"></path><path d="M28 87L61 191L94 150Z" fill="#297ea6" stroke="#297ea6"></path><path d="M1466 209L1440 226L1413 353Z" fill="#af73be" stroke="#af73be"></path><path d="M1466 209L1413 353L1440 400Z" fill="#757cc3" stroke="#757cc3"></path><path d="M0 701L0 722L44 692Z" fill="#297ea6" stroke="#297ea6"></path><path d="M1466 209L1440 216L1440 226Z" fill="#f06590" stroke="#f06590"></path><path d="M1440 226L1440 216L1382 172Z" fill="#577ebd" stroke="#577ebd"></path><path d="M1345 5L1327 0L1230 147Z" fill="#757cc3" stroke="#757cc3"></path><path d="M1044 1080L1180 1080L1091 962Z" fill="#757cc3" stroke="#757cc3"></path><path d="M87 948L214 802L80 821Z" fill="#577ebd" stroke="#577ebd"></path><path d="M87 948L80 821L52 945Z" fill="#c96db3" stroke="#c96db3"></path><path d="M1440 797L1440 727L1397 776Z" fill="#af73be" stroke="#af73be"></path><path d="M1397 776L1440 727L1385 775Z" fill="#577ebd" stroke="#577ebd"></path><path d="M1440 626L1440 727L1445 590Z" fill="#fb6779" stroke="#fb6779"></path><path d="M1345 5L1230 147L1382 172Z" fill="#df68a4" stroke="#df68a4"></path><path d="M1165 0L1440 -12L1131 0Z" fill="#3d7fb3" stroke="#3d7fb3"></path><path d="M1180 1080L1184 1080L1091 962Z" fill="#f06590" stroke="#f06590"></path><path d="M1466 209L1440 197L1440 216Z" fill="#297ea6" stroke="#297ea6"></path><path d="M1440 216L1440 197L1382 172Z" fill="#757cc3" stroke="#757cc3"></path><path d="M132 0L71 49L159 100Z" fill="#757cc3" stroke="#757cc3"></path><path d="M221 1080L243 1080L257 1054Z" fill="#c96db3" stroke="#c96db3"></path><path d="M257 1054L243 1080L356 1080Z" fill="#f06590" stroke="#f06590"></path><path d="M1294 1009L1317 963L1288 940Z" fill="#c96db3" stroke="#c96db3"></path><path d="M1288 940L1317 963L1288 936Z" fill="#af73be" stroke="#af73be"></path><path d="M0 722L0 771L87 757Z" fill="#757cc3" stroke="#757cc3"></path><path d="M1448 145L1345 5L1382 172Z" fill="#577ebd" stroke="#577ebd"></path><path d="M192 1080L221 1080L262 1013Z" fill="#ff6f61" stroke="#ff6f61"></path><path d="M71 49L28 87L94 150Z" fill="#fb6779" stroke="#fb6779"></path><path d="M1184 1080L1294 1009L1288 940Z" fill="#9278c3" stroke="#9278c3"></path><path d="M1385 775L1311 806L1423 865Z" fill="#577ebd" stroke="#577ebd"></path><path d="M695 -9L82 0L132 0Z" fill="#9278c3" stroke="#9278c3"></path><path d="M132 0L82 0L71 49Z" fill="#ff6f61" stroke="#ff6f61"></path><path d="M71 49L0 46L28 87Z" fill="#fb6779" stroke="#fb6779"></path><path d="M1445 552L1466 209L1440 400Z" fill="#ff6f61" stroke="#ff6f61"></path><path d="M1440 197L1448 145L1382 172Z" fill="#df68a4" stroke="#df68a4"></path><path d="M1445 590L1466 209L1445 552Z" fill="#9278c3" stroke="#9278c3"></path><path d="M1442 1029L1466 209L1445 590Z" fill="#9278c3" stroke="#9278c3"></path><path d="M52 945L80 821L0 877Z" fill="#f06590" stroke="#f06590"></path><path d="M148 980L192 1080L262 1013Z" fill="#757cc3" stroke="#757cc3"></path><path d="M1311 806L1284 913L1423 865Z" fill="#c96db3" stroke="#c96db3"></path><path d="M1440 727L1440 797L1445 590Z" fill="#ff6f61" stroke="#ff6f61"></path><path d="M1423 865L1284 913L1317 963Z" fill="#757cc3" stroke="#757cc3"></path><path d="M1440 797L1440 798L1445 590Z" fill="#fb6779" stroke="#fb6779"></path><path d="M1466 209L1448 145L1440 197Z" fill="#c96db3" stroke="#c96db3"></path><path d="M63 1083L192 1080L148 980Z" fill="#577ebd" stroke="#577ebd"></path><path d="M0 46L0 99L28 87Z" fill="#757cc3" stroke="#757cc3"></path><path d="M28 87L0 99L61 191Z" fill="#df68a4" stroke="#df68a4"></path><path d="M1440 949L1423 865L1317 963Z" fill="#fb6779" stroke="#fb6779"></path><path d="M0 866L80 821L58 800Z" fill="#df68a4" stroke="#df68a4"></path><path d="M87 948L63 1083L148 980Z" fill="#df68a4" stroke="#df68a4"></path><path d="M0 771L0 866L58 800Z" fill="#df68a4" stroke="#df68a4"></path><path d="M0 866L0 877L80 821Z" fill="#3d7fb3" stroke="#3d7fb3"></path><path d="M0 0L0 46L71 49Z" fill="#9278c3" stroke="#9278c3"></path><path d="M1184 1080L1318 1080L1294 1009Z" fill="#3d7fb3" stroke="#3d7fb3"></path><path d="M1294 1009L1376 1080L1317 963Z" fill="#af73be" stroke="#af73be"></path><path d="M82 0L0 0L71 49Z" fill="#df68a4" stroke="#df68a4"></path><path d="M695 -9L0 0L82 0Z" fill="#df68a4" stroke="#df68a4"></path><path d="M1448 145L1440 0L1345 5Z" fill="#df68a4" stroke="#df68a4"></path><path d="M1345 5L1440 -12L1327 0Z" fill="#ff6f61" stroke="#ff6f61"></path><path d="M1327 0L1440 -12L1165 0Z" fill="#df68a4" stroke="#df68a4"></path><path d="M1452 0L1440 0L1448 145Z" fill="#df68a4" stroke="#df68a4"></path><path d="M1440 962L1440 949L1317 963Z" fill="#757cc3" stroke="#757cc3"></path><path d="M1423 865L1440 949L1440 798Z" fill="#fb6779" stroke="#fb6779"></path><path d="M1440 798L1442 1029L1445 590Z" fill="#3d7fb3" stroke="#3d7fb3"></path><path d="M1452 0L1440 -12L1440 0Z" fill="#577ebd" stroke="#577ebd"></path><path d="M1440 0L1440 -12L1345 5Z" fill="#ff6f61" stroke="#ff6f61"></path><path d="M1466 209L1452 0L1448 145Z" fill="#297ea6" stroke="#297ea6"></path><path d="M1442 1029L1440 962L1317 963Z" fill="#df68a4" stroke="#df68a4"></path><path d="M1440 949L1442 1029L1440 798Z" fill="#fb6779" stroke="#fb6779"></path><path d="M1318 1080L1376 1080L1294 1009Z" fill="#297ea6" stroke="#297ea6"></path><path d="M50 1080L87 948L4 1040Z" fill="#297ea6" stroke="#297ea6"></path><path d="M50 1080L63 1083L87 948Z" fill="#297ea6" stroke="#297ea6"></path><path d="M192 1080L0 1102L221 1080Z" fill="#9278c3" stroke="#9278c3"></path><path d="M221 1080L0 1102L243 1080Z" fill="#f06590" stroke="#f06590"></path><path d="M243 1080L0 1102L356 1080Z" fill="#3d7fb3" stroke="#3d7fb3"></path><path d="M0 1102L571 1080L517 1080Z" fill="#fb6779" stroke="#fb6779"></path><path d="M0 1102L574 1080L571 1080Z" fill="#af73be" stroke="#af73be"></path><path d="M0 1102L578 1080L574 1080Z" fill="#297ea6" stroke="#297ea6"></path><path d="M0 1102L699 1080L578 1080Z" fill="#df68a4" stroke="#df68a4"></path><path d="M0 1102L1370 1104L699 1080Z" fill="#c96db3" stroke="#c96db3"></path><path d="M699 1080L1370 1104L837 1080Z" fill="#757cc3" stroke="#757cc3"></path><path d="M837 1080L1370 1104L881 1080Z" fill="#3d7fb3" stroke="#3d7fb3"></path><path d="M881 1080L1370 1104L993 1080Z" fill="#af73be" stroke="#af73be"></path><path d="M993 1080L1370 1104L1021 1080Z" fill="#c96db3" stroke="#c96db3"></path><path d="M1021 1080L1370 1104L1044 1080Z" fill="#af73be" stroke="#af73be"></path><path d="M1044 1080L1370 1104L1180 1080Z" fill="#df68a4" stroke="#df68a4"></path><path d="M1180 1080L1370 1104L1184 1080Z" fill="#c96db3" stroke="#c96db3"></path><path d="M1184 1080L1370 1104L1318 1080Z" fill="#577ebd" stroke="#577ebd"></path><path d="M1318 1080L1370 1104L1376 1080Z" fill="#3d7fb3" stroke="#3d7fb3"></path><path d="M4 1040L87 948L52 945Z" fill="#577ebd" stroke="#577ebd"></path><path d="M0 1102L517 1080L356 1080Z" fill="#f06590" stroke="#f06590"></path><path d="M1376 1080L1442 1029L1317 963Z" fill="#3d7fb3" stroke="#3d7fb3"></path><path d="M0 877L4 1040L52 945Z" fill="#df68a4" stroke="#df68a4"></path><path d="M1440 1080L1442 1029L1376 1080Z" fill="#f06590" stroke="#f06590"></path><path d="M1440 962L1442 1029L1440 949Z" fill="#c96db3" stroke="#c96db3"></path><path d="M0 877L0 1080L4 1040Z" fill="#3d7fb3" stroke="#3d7fb3"></path><path d="M4 1040L0 1080L50 1080Z" fill="#9278c3" stroke="#9278c3"></path><path d="M50 1080L0 1102L63 1083Z" fill="#df68a4" stroke="#df68a4"></path><path d="M1440 1082L1440 1080L1376 1080Z" fill="#9278c3" stroke="#9278c3"></path><path d="M1370 1104L1440 1082L1376 1080Z" fill="#297ea6" stroke="#297ea6"></path><path d="M1440 1080L1440 1082L1442 1029Z" fill="#df68a4" stroke="#df68a4"></path><path d="M0 1080L0 1102L50 1080Z" fill="#ff6f61" stroke="#ff6f61"></path><path d="M63 1083L0 1102L192 1080Z" fill="#577ebd" stroke="#577ebd"></path></g></svg>