<?xml version="1.0" encoding="utf-8"?>

<!DOCTYPE svg PUBLIC "-//W3C//DTD SVG 1.1//EN" "http://www.w3.org/Graphics/SVG/1.1/DTD/svg11.dtd">
<!-- Uploaded to: SVG Repo, www.svgrepo.com, Generator: SVG Repo Mixer Tools -->
<svg height="800px" width="800px" version="1.1" id="_x32_" xmlns="http://www.w3.org/2000/svg" xmlns:xlink="http://www.w3.org/1999/xlink" 
	 viewBox="0 0 512 512"  xml:space="preserve">
<style type="text/css">
	.st0{fill:#000000;}
</style>
<g>
	<path class="st0" d="M455.925,324.816v-0.305c-43.168,34.714-115.123,56.648-200,56.648c-74.15,0-138.432-16.743-182.279-44.12
		c-6.223-3.94-12.07-8.112-17.48-12.524v0.178c-0.076-0.062-0.162-0.119-0.24-0.182v92.043c0,52.626,89.717,95.445,200,95.445
		s200-42.819,200-95.445v-56.488l0.15-35.363C456.026,324.742,455.974,324.777,455.925,324.816z"/>
	<path class="st0" d="M255.925,340.831c110.283,0,200-42.82,200-95.444v-5.188V201.87v-16.675l0.15-10.437
		c-0.049,0.039-0.102,0.074-0.15,0.113v-0.301c-43.168,34.714-115.123,56.648-200,56.648c-74.117,0-138.375-16.73-182.221-44.087
		c-6.244-3.952-12.111-8.137-17.539-12.562v0.182c-0.076-0.062-0.162-0.119-0.24-0.182v27.3v38.329v5.188
		C55.925,298.012,145.642,340.831,255.925,340.831z"/>
	<path class="st0" d="M255.925,190.89c110.283,0,200-42.819,200-95.444c0-1.507-0.328-2.974-0.472-4.463
		c-0.836-8.539-3.844-16.81-9.098-24.622C420.507,27.918,344.952,0,255.925,0C166.898,0,91.343,27.918,65.497,66.36
		c-5.256,7.812-8.264,16.083-9.098,24.622c-0.147,1.488-0.475,2.956-0.475,4.463C55.925,148.07,145.642,190.89,255.925,190.89z"/>
</g>
</svg>