<svg
fill="#000000"
width="86px"
height="86px"
viewBox="0 0 64 64"
data-name="Layer 1"
id="Layer_1"
xmlns="http://www.w3.org/2000/svg"
>
<g id="SVGRepo_bgCarrier" stroke-width="0"></g>
<g
    id="SVGRepo_tracerCarrier"
    stroke-linecap="round"
    stroke-linejoin="round"
></g>
<g id="SVGRepo_iconCarrier">
    <rect height="2" width="14" x="46" y="14"></rect>
    <rect height="1" width="4" x="51" y="12"></rect>
    <path
    d="M49,28v6a1,1,0,0,0,1,1h4a1,1,0,0,0,1-1V28a1,1,0,0,0-1-1H50A1,1,0,0,0,49,28Zm3,6h0a1,1,0,0,1-1-1h0a1,1,0,0,1,1-1h0a1,1,0,0,1,1,1h0A1,1,0,0,1,52,34Z"
    ></path>
    <rect height="7" width="10" x="48" y="4"></rect>
    <path
    d="M7,14a1,1,0,0,1,1-1h8a1,1,0,0,1,1,1v5h1V13a1,1,0,0,0-1-1H7a1,1,0,0,0-1,1v6H7Z"
    ></path>
    <rect height="5" width="8" x="8" y="14"></rect>
    <path
    d="M20,53H44V48H20Zm12-3h2v2H32Zm-3,0h2v2H29Zm-7,0h6v2H22Z"
    ></path>
    <polygon
    points="18.465 21 19.131 20 4.869 20 5.535 21 18.465 21"
    ></polygon>
    <path
    d="M20,60H44V55H20Zm12-3h2v2H32Zm-3,0h2v2H29Zm-7,0h6v2H22Z"
    ></path>
    <path
    d="M20,46H44V41H20Zm12-3h2v2H32Zm-3,0h2v2H29Zm-7,0h6v2H22Z"
    ></path>
    <path
    d="M33,5.184V2H31V5.184a2.982,2.982,0,0,0,0,5.632v5.368A3,3,0,0,0,29.184,18H24v2h5.184A3,3,0,0,0,31,21.816v4.368a2.982,2.982,0,0,0,0,5.632V40h2V31.816A3,3,0,0,0,34.816,30H43V28H34.816A3,3,0,0,0,33,26.184V21.816a2.982,2.982,0,0,0,0-5.632V10.816A3,3,0,0,0,34.816,9H43V7H34.816A3,3,0,0,0,33,5.184ZM32,30a1,1,0,1,1,1-1A1,1,0,0,1,32,30Zm0-10a1,1,0,1,1,1-1A1,1,0,0,1,32,20ZM32,9a1,1,0,1,1,1-1A1,1,0,0,1,32,9Z"
    ></path>
    <rect height="15" width="2" x="48" y="47"></rect>
    <rect height="12" width="2" x="52" y="50"></rect>
    <rect height="9" width="2" x="56" y="53"></rect>
    <rect height="6" width="2" x="60" y="56"></rect>
    <rect height="15" width="2" x="14" y="47"></rect>
    <rect height="12" width="2" x="10" y="50"></rect>
    <rect height="9" width="2" x="6" y="53"></rect>
    <rect height="6" width="2" x="2" y="56"></rect>
</g>
</svg>