<svg id="visual" viewBox="0 0 1000 800" width="1000" height="800" xmlns="http://www.w3.org/2000/svg" xmlns:xlink="http://www.w3.org/1999/xlink" version="1.1"><g stroke-width="1" stroke-linejoin="bevel"><path d="M543.6 388L556.6 523L645.7 410Z" fill="#d7b4a3" stroke="#d7b4a3"></path><path d="M446.4 505L550.6 562L556.6 523Z" fill="#d7b2a0" stroke="#d7b2a0"></path><path d="M556.6 523L693.7 495L645.7 410Z" fill="#dcc0b2" stroke="#dcc0b2"></path><path d="M663.7 625L693.7 495L556.6 523Z" fill="#d8b5a5" stroke="#d8b5a5"></path><path d="M543.6 388L446.4 505L556.6 523Z" fill="#d5af9c" stroke="#d5af9c"></path><path d="M693.7 495L739.8 437L645.7 410Z" fill="#d9b7a7" stroke="#d9b7a7"></path><path d="M645.7 410L538.6 279L543.6 388Z" fill="#d6b19e" stroke="#d6b19e"></path><path d="M543.6 388L418.4 376L446.4 505Z" fill="#d9b7a7" stroke="#d9b7a7"></path><path d="M670.7 235L538.6 279L645.7 410Z" fill="#dab9a9" stroke="#dab9a9"></path><path d="M460.4 264L418.4 376L543.6 388Z" fill="#dabbab" stroke="#dabbab"></path><path d="M686.7 663L663.7 625L557.6 720Z" fill="#d5af9c" stroke="#d5af9c"></path><path d="M550.6 562L663.7 625L556.6 523Z" fill="#dabbab" stroke="#dabbab"></path><path d="M693.7 495L784.8 482L739.8 437Z" fill="#d8b5a5" stroke="#d8b5a5"></path><path d="M768.8 614L784.8 482L693.7 495Z" fill="#d6b19e" stroke="#d6b19e"></path><path d="M298.3 471L421.4 578L446.4 505Z" fill="#dabbab" stroke="#dabbab"></path><path d="M446.4 505L421.4 578L550.6 562Z" fill="#d5af9c" stroke="#d5af9c"></path><path d="M538.6 279L460.4 264L543.6 388Z" fill="#dcc0b2" stroke="#dcc0b2"></path><path d="M670.7 235L526.6 234L538.6 279Z" fill="#dcc0b2" stroke="#dcc0b2"></path><path d="M538.6 279L526.6 234L460.4 264Z" fill="#d8b5a5" stroke="#d8b5a5"></path><path d="M806.8 264L704.7 260L739.8 437Z" fill="#dcc0b2" stroke="#dcc0b2"></path><path d="M739.8 437L704.7 260L645.7 410Z" fill="#d8b5a5" stroke="#d8b5a5"></path><path d="M704.7 260L670.7 235L645.7 410Z" fill="#dcc0b2" stroke="#dcc0b2"></path><path d="M557.6 720L663.7 625L550.6 562Z" fill="#dcc0b2" stroke="#dcc0b2"></path><path d="M663.7 625L768.8 614L693.7 495Z" fill="#dbbeb0" stroke="#dbbeb0"></path><path d="M345.3 294L356.3 389L418.4 376Z" fill="#d7b4a3" stroke="#d7b4a3"></path><path d="M418.4 376L356.3 389L446.4 505Z" fill="#dab9a9" stroke="#dab9a9"></path><path d="M686.7 663L768.8 614L663.7 625Z" fill="#d7b4a3" stroke="#d7b4a3"></path><path d="M417.4 676L557.6 720L550.6 562Z" fill="#dab9a9" stroke="#dab9a9"></path><path d="M320.3 626L417.4 676L421.4 578Z" fill="#dabbab" stroke="#dabbab"></path><path d="M421.4 578L417.4 676L550.6 562Z" fill="#d7b2a0" stroke="#d7b2a0"></path><path d="M356.3 389L298.3 471L446.4 505Z" fill="#dcc0b2" stroke="#dcc0b2"></path><path d="M460.4 264L345.3 294L418.4 376Z" fill="#dab9a9" stroke="#dab9a9"></path><path d="M356.3 389L257.2 365L298.3 471Z" fill="#dcc0b2" stroke="#dcc0b2"></path><path d="M315.3 177L345.3 294L460.4 264Z" fill="#d6b19e" stroke="#d6b19e"></path><path d="M872.9 514L860.9 385L784.8 482Z" fill="#dbbeb0" stroke="#dbbeb0"></path><path d="M784.8 482L860.9 385L739.8 437Z" fill="#d7b4a3" stroke="#d7b4a3"></path><path d="M860.9 385L806.8 264L739.8 437Z" fill="#dab9a9" stroke="#dab9a9"></path><path d="M704.7 260L745.8 171L670.7 235Z" fill="#d7b4a3" stroke="#d7b4a3"></path><path d="M768.8 614L872.9 514L784.8 482Z" fill="#d5af9c" stroke="#d5af9c"></path><path d="M563.6 131L463.4 165L526.6 234Z" fill="#d9b7a7" stroke="#d9b7a7"></path><path d="M526.6 234L463.4 165L460.4 264Z" fill="#dabbab" stroke="#dabbab"></path><path d="M563.6 131L526.6 234L670.7 235Z" fill="#d7b4a3" stroke="#d7b4a3"></path><path d="M298.3 471L320.3 626L421.4 578Z" fill="#d7b2a0" stroke="#d7b2a0"></path><path d="M686.7 663L796.8 686L768.8 614Z" fill="#d8b5a5" stroke="#d8b5a5"></path><path d="M768.8 614L884.9 603L872.9 514Z" fill="#dab9a9" stroke="#dab9a9"></path><path d="M748.8 800L796.8 686L686.7 663Z" fill="#dbbeb0" stroke="#dbbeb0"></path><path d="M695.7 108L563.6 131L670.7 235Z" fill="#d8b5a5" stroke="#d8b5a5"></path><path d="M806.8 264L745.8 171L704.7 260Z" fill="#dbbeb0" stroke="#dbbeb0"></path><path d="M320.3 626L371.3 700L417.4 676Z" fill="#d8b5a5" stroke="#d8b5a5"></path><path d="M417.4 676L516.6 800L557.6 720Z" fill="#d5af9c" stroke="#d5af9c"></path><path d="M796.8 686L884.9 603L768.8 614Z" fill="#dab9a9" stroke="#dab9a9"></path><path d="M1000 320L886.9 267L860.9 385Z" fill="#d7b2a0" stroke="#d7b2a0"></path><path d="M242.2 318L257.2 365L345.3 294Z" fill="#dcc0b2" stroke="#dcc0b2"></path><path d="M345.3 294L257.2 365L356.3 389Z" fill="#d7b4a3" stroke="#d7b4a3"></path><path d="M298.3 471L233.2 526L320.3 626Z" fill="#d7b4a3" stroke="#d7b4a3"></path><path d="M409.4 800L516.6 800L417.4 676Z" fill="#d6b19e" stroke="#d6b19e"></path><path d="M557.6 720L683.7 800L686.7 663Z" fill="#d7b2a0" stroke="#d7b2a0"></path><path d="M1000 472L860.9 385L872.9 514Z" fill="#d5af9c" stroke="#d5af9c"></path><path d="M860.9 385L886.9 267L806.8 264Z" fill="#d7b2a0" stroke="#d7b2a0"></path><path d="M876.9 113L755.8 132L745.8 171Z" fill="#d8b5a5" stroke="#d8b5a5"></path><path d="M257.2 365L233.2 526L298.3 471Z" fill="#d8b5a5" stroke="#d8b5a5"></path><path d="M317.3 800L409.4 800L371.3 700Z" fill="#d6b19e" stroke="#d6b19e"></path><path d="M516.6 800L683.7 800L557.6 720Z" fill="#dabbab" stroke="#dabbab"></path><path d="M796.8 686L877.9 712L884.9 603Z" fill="#dcc0b2" stroke="#dcc0b2"></path><path d="M755.8 132L695.7 108L745.8 171Z" fill="#d7b4a3" stroke="#d7b4a3"></path><path d="M745.8 171L695.7 108L670.7 235Z" fill="#d8b5a5" stroke="#d8b5a5"></path><path d="M885.9 229L745.8 171L806.8 264Z" fill="#d6b19e" stroke="#d6b19e"></path><path d="M235.2 230L242.2 318L345.3 294Z" fill="#d7b2a0" stroke="#d7b2a0"></path><path d="M77.1 539L127.1 575L233.2 526Z" fill="#d7b2a0" stroke="#d7b2a0"></path><path d="M886.9 267L885.9 229L806.8 264Z" fill="#dbbeb0" stroke="#dbbeb0"></path><path d="M313.3 134L315.3 177L463.4 165Z" fill="#d9b7a7" stroke="#d9b7a7"></path><path d="M463.4 165L315.3 177L460.4 264Z" fill="#d8b5a5" stroke="#d8b5a5"></path><path d="M683.7 800L748.8 800L686.7 663Z" fill="#dcc0b2" stroke="#dcc0b2"></path><path d="M317.3 800L371.3 700L225.2 727Z" fill="#d9b7a7" stroke="#d9b7a7"></path><path d="M371.3 700L409.4 800L417.4 676Z" fill="#dab9a9" stroke="#dab9a9"></path><path d="M127.1 575L209.2 569L233.2 526Z" fill="#dbbeb0" stroke="#dbbeb0"></path><path d="M233.2 526L209.2 569L320.3 626Z" fill="#dbbeb0" stroke="#dbbeb0"></path><path d="M748.8 800L877.9 712L796.8 686Z" fill="#dbbcae" stroke="#dbbcae"></path><path d="M563.6 131L461.4 63L463.4 165Z" fill="#dab9a9" stroke="#dab9a9"></path><path d="M530.6 0L461.4 63L563.6 131Z" fill="#d8b5a5" stroke="#d8b5a5"></path><path d="M315.3 177L235.2 230L345.3 294Z" fill="#d5af9c" stroke="#d5af9c"></path><path d="M92.1 397L233.2 526L257.2 365Z" fill="#d7b2a0" stroke="#d7b2a0"></path><path d="M224.2 93L235.2 230L315.3 177Z" fill="#d5af9c" stroke="#d5af9c"></path><path d="M461.4 63L313.3 134L463.4 165Z" fill="#d7b2a0" stroke="#d7b2a0"></path><path d="M1000 589L872.9 514L884.9 603Z" fill="#d8b5a5" stroke="#d8b5a5"></path><path d="M1000 589L1000 472L872.9 514Z" fill="#d8b5a5" stroke="#d8b5a5"></path><path d="M886.9 267L1000 175L885.9 229Z" fill="#d5af9c" stroke="#d5af9c"></path><path d="M1000 472L1000 412L860.9 385Z" fill="#d5af9c" stroke="#d5af9c"></path><path d="M1000 412L1000 320L860.9 385Z" fill="#dbbcae" stroke="#dbbcae"></path><path d="M225.2 727L371.3 700L320.3 626Z" fill="#d7b2a0" stroke="#d7b2a0"></path><path d="M1000 721L1000 589L884.9 603Z" fill="#dabbab" stroke="#dabbab"></path><path d="M770.8 0L672.7 0L695.7 108Z" fill="#dbbcae" stroke="#dbbcae"></path><path d="M672.7 0L530.6 0L563.6 131Z" fill="#dbbeb0" stroke="#dbbeb0"></path><path d="M885.9 229L876.9 113L745.8 171Z" fill="#d9b7a7" stroke="#d9b7a7"></path><path d="M1000 175L876.9 113L885.9 229Z" fill="#dcc0b2" stroke="#dcc0b2"></path><path d="M209.2 569L225.2 727L320.3 626Z" fill="#dab9a9" stroke="#dab9a9"></path><path d="M672.7 0L563.6 131L695.7 108Z" fill="#d6b19e" stroke="#d6b19e"></path><path d="M461.4 63L353.3 0L313.3 134Z" fill="#d7b2a0" stroke="#d7b2a0"></path><path d="M770.8 0L695.7 108L755.8 132Z" fill="#dab9a9" stroke="#dab9a9"></path><path d="M123.1 318L257.2 365L242.2 318Z" fill="#dcc0b2" stroke="#dcc0b2"></path><path d="M209.2 569L127.1 575L225.2 727Z" fill="#dcc0b2" stroke="#dcc0b2"></path><path d="M530.6 0L425.4 0L461.4 63Z" fill="#d5af9c" stroke="#d5af9c"></path><path d="M131.1 235L242.2 318L235.2 230Z" fill="#d7b2a0" stroke="#d7b2a0"></path><path d="M131.1 235L123.1 318L242.2 318Z" fill="#d5af9c" stroke="#d5af9c"></path><path d="M131.1 235L235.2 230L224.2 93Z" fill="#d9b7a7" stroke="#d9b7a7"></path><path d="M748.8 800L913.9 800L877.9 712Z" fill="#dbbcae" stroke="#dbbcae"></path><path d="M877.9 712L1000 721L884.9 603Z" fill="#d5af9c" stroke="#d5af9c"></path><path d="M876.9 113L770.8 0L755.8 132Z" fill="#d9b7a7" stroke="#d9b7a7"></path><path d="M123.1 318L92.1 397L257.2 365Z" fill="#dbbcae" stroke="#dbbcae"></path><path d="M913.9 800L1000 721L877.9 712Z" fill="#d6b19e" stroke="#d6b19e"></path><path d="M1000 320L1000 175L886.9 267Z" fill="#d7b2a0" stroke="#d7b2a0"></path><path d="M876.9 113L914.9 0L770.8 0Z" fill="#d9b7a7" stroke="#d9b7a7"></path><path d="M224.2 93L315.3 177L313.3 134Z" fill="#dcc0b2" stroke="#dcc0b2"></path><path d="M123.1 318L0 361L92.1 397Z" fill="#dbbcae" stroke="#dbbcae"></path><path d="M111.1 800L218.2 800L225.2 727Z" fill="#d9b7a7" stroke="#d9b7a7"></path><path d="M225.2 727L218.2 800L317.3 800Z" fill="#dbbeb0" stroke="#dbbeb0"></path><path d="M425.4 0L353.3 0L461.4 63Z" fill="#d7b2a0" stroke="#d7b2a0"></path><path d="M353.3 0L224.2 93L313.3 134Z" fill="#d9b7a7" stroke="#d9b7a7"></path><path d="M92.1 397L77.1 539L233.2 526Z" fill="#d7b4a3" stroke="#d7b4a3"></path><path d="M127.1 575L92.1 733L225.2 727Z" fill="#dabbab" stroke="#dabbab"></path><path d="M913.9 800L1000 800L1000 721Z" fill="#dbbeb0" stroke="#dbbeb0"></path><path d="M1000 175L1000 83L876.9 113Z" fill="#dcc0b2" stroke="#dcc0b2"></path><path d="M1000 83L914.9 0L876.9 113Z" fill="#d9b7a7" stroke="#d9b7a7"></path><path d="M0 628L92.1 733L127.1 575Z" fill="#d9b7a7" stroke="#d9b7a7"></path><path d="M92.1 733L111.1 800L225.2 727Z" fill="#dab9a9" stroke="#dab9a9"></path><path d="M77.1 539L0 628L127.1 575Z" fill="#dbbeb0" stroke="#dbbeb0"></path><path d="M92.1 733L0 800L111.1 800Z" fill="#d5af9c" stroke="#d5af9c"></path><path d="M92.1 397L0 530L77.1 539Z" fill="#d9b7a7" stroke="#d9b7a7"></path><path d="M0 361L0 530L92.1 397Z" fill="#d7b4a3" stroke="#d7b4a3"></path><path d="M182.2 0L134.1 70L224.2 93Z" fill="#dabbab" stroke="#dabbab"></path><path d="M224.2 93L134.1 70L131.1 235Z" fill="#d5af9c" stroke="#d5af9c"></path><path d="M0 263L0 361L123.1 318Z" fill="#d9b7a7" stroke="#d9b7a7"></path><path d="M0 263L123.1 318L131.1 235Z" fill="#dabbab" stroke="#dabbab"></path><path d="M353.3 0L182.2 0L224.2 93Z" fill="#d5af9c" stroke="#d5af9c"></path><path d="M0 530L0 628L77.1 539Z" fill="#dbbeb0" stroke="#dbbeb0"></path><path d="M0 168L0 263L131.1 235Z" fill="#d7b2a0" stroke="#d7b2a0"></path><path d="M0 168L131.1 235L134.1 70Z" fill="#d8b5a5" stroke="#d8b5a5"></path><path d="M1000 83L1000 0L914.9 0Z" fill="#d8b5a5" stroke="#d8b5a5"></path><path d="M0 628L0 702L92.1 733Z" fill="#dbbeb0" stroke="#dbbeb0"></path><path d="M0 128L0 168L134.1 70Z" fill="#d7b4a3" stroke="#d7b4a3"></path><path d="M182.2 0L111.1 0L134.1 70Z" fill="#dbbeb0" stroke="#dbbeb0"></path><path d="M0 0L0 128L134.1 70Z" fill="#dbbeb0" stroke="#dbbeb0"></path><path d="M0 702L0 800L92.1 733Z" fill="#dbbcae" stroke="#dbbcae"></path><path d="M111.1 0L0 0L134.1 70Z" fill="#d8b5a5" stroke="#d8b5a5"></path></g></svg>