<?xml version="1.0" ?>
<!DOCTYPE svg  PUBLIC '-//W3C//DTD SVG 1.1//EN'  'http://www.w3.org/Graphics/SVG/1.1/DTD/svg11.dtd'>
<!-- Uploaded to: SVG Repo, www.svgrepo.com, Generator: SVG Repo Mixer Tools -->
<svg fill="#000000" width="800px" height="800px" viewBox="0 0 512 512" version="1.1" xml:space="preserve" xmlns="http://www.w3.org/2000/svg" xmlns:xlink="http://www.w3.org/1999/xlink">
<g id="_x31_77_x2C__frontend_x2C__interface_x2C__mobile_x2C__phone_x2C__developer">
<g>
<path d="M375.969,381.521H130.978v50.003v0.16v0.032l0.018,0.161v0.032v0.16v0.033    v0.16v0.032l0.014,0.161l0.018,0.192l0,0l0.014,0.193l0,0l0.018,0.193l0.014,0.192l0.018,0.193l0,0l0.032,0.16v0.033l0.031,0.16    l0,0l0.035,0.193l0.032,0.192l0,0l0.032,0.193l0.031,0.161l0.032,0.193l0.049,0.161l0.049,0.193l0.046,0.193l0,0l0.049,0.16    l0.049,0.193l0.049,0.16l0.063,0.193l0.049,0.161l0.049,0.193l0.063,0.16l0.063,0.193l0.067,0.16l0.063,0.162l0.063,0.161    l0.081,0.192l0.081,0.16l0.063,0.161l0.081,0.162l0.081,0.16l0.066,0.161l0.095,0.161l0.081,0.192l0.081,0.129l0.095,0.161    l0.098,0.16l0.081,0.161l0.095,0.161l0.098,0.161l0.095,0.16l0.098,0.129l0.112,0.16l0.099,0.162l0.095,0.128l0.112,0.161    l0.112,0.128l0.098,0.162l0.112,0.129l0.112,0.16l0.13,0.129l0.095,0.129l0.13,0.161l0.112,0.129l0.112,0.128l0.13,0.129    l0.126,0.129l0.13,0.128l0.129,0.129c2.703,2.735,6.465,4.409,10.585,4.409h214.971l0,0h0.193h0.192l0,0h0.179h0.014h0.162h0.031    h0.162l0.031-0.033h0.161h0.032h0.161h0.018l0.161-0.032h0.031h0.145l0.031-0.031h0.162h0.031l0.147-0.033h0.046l0.129-0.031    h0.063l0.13-0.032h0.049l0.127-0.033h0.049l0.13-0.031h0.063l0.13-0.032h0.049l0.112-0.033h0.081l0.112-0.031l0.063-0.031h0.099    l0.077-0.033l0.115-0.032h0.064l0.094-0.031l0.099-0.033l0.081-0.032h0.08l0.096-0.031l0.098-0.033l0.08-0.031l0.082-0.033h0.094    l0.099-0.032l0.063-0.031l0.094-0.033l0.067-0.032l0.112-0.031l0.063-0.032l0.113-0.033l0.066-0.031l0.095-0.032l0.063-0.033    l0.129-0.031l0.032-0.032l0.13-0.032l0.049-0.032l0.112-0.032l0.05-0.032l0.111-0.064h0.063l0.112-0.063h0.049l0.113-0.065    l0.031-0.031l0.144-0.065h0.035l0.126-0.063h0.032l0.291-0.161l0.015-0.032l0.146-0.063l0,0l0.162-0.097l0,0l0.158-0.065l0,0    l0.161-0.097l0,0l0.579-0.386h0.031l0.13-0.097l0,0l0.161-0.128l0.131-0.064l0.014-0.032l0.112-0.064l0.034-0.032l0.257-0.192    l0.032-0.033l0.417-0.321l0.099-0.097l0.045-0.031l0.273-0.227l0.082-0.064l0.049-0.063l0.08-0.065l0.049-0.063l0.081-0.064    l0.046-0.032l0.08-0.064l0.067-0.064l0.126-0.161c0.597-0.579,1.145-1.222,1.625-1.897v-0.033l0.422-0.579l0,0l0.192-0.321l0,0    l0.257-0.451v-0.031l0.094-0.129v-0.032l0.081-0.129h0.018l0.063-0.161v-0.031l0.098-0.129v-0.032l0.063-0.129l0.018-0.032    l0.081-0.129v-0.031l0.063-0.162l0,0l0.081-0.161l0,0l0.081-0.16l0,0l0.063-0.161v-0.031l0.131-0.29v-0.033l0,0l0.063-0.16l0,0    l0.063-0.161v-0.032l0.066-0.16l0,0l0.063-0.162v-0.031l0.049-0.161l0,0l0.049-0.161v-0.032l0.063-0.16l0,0l0.032-0.161    l0.018-0.032l0.045-0.16l0,0l0.035-0.193h0.014l0.032-0.161l0.017-0.032l0.032-0.161l0,0l0.032-0.193l0,0l0.035-0.161l0,0    l0.031-0.193l0,0l0.031-0.192l0,0l0.031-0.16l0.018-0.033l0.014-0.16v-0.033l0.032-0.16l0,0l0.018-0.193h0.018v-0.192l0,0    l0.032-0.193l0,0v-0.193h0.014v-0.192h0.018v-0.161v-0.032v-0.16l0.014-0.033v-0.16v-0.032v-0.161v-0.192V381.521z     M130.978,373.605h244.991v-10.297h-96.736c-2.189,0-3.958-1.77-3.958-3.957v-93.537c0-2.188,1.769-3.959,3.958-3.959h96.736    c0-67.635,0-135.303,0-202.97c0-4.118-1.688-7.851-4.422-10.586c-2.702-2.702-6.469-4.408-10.588-4.408H145.988    c-4.12,0-7.882,1.673-10.602,4.408c-2.72,2.702-4.408,6.468-4.408,10.586V84.37H343.52c2.19,0,3.959,1.77,3.959,3.958    c0,2.188-1.769,3.957-3.959,3.957H130.978v24.165h28.381c2.169,0,3.941,1.77,3.941,3.958v64.643c0,2.188-1.772,3.957-3.941,3.957    h-28.381V373.605z M260.552,406.813c-1.818-1.803-4.327-2.93-7.079-2.93s-5.261,1.127-7.061,2.93    c-1.818,1.802-2.931,4.311-2.931,7.078s1.113,5.276,2.931,7.079c1.8,1.802,4.31,2.929,7.061,2.929c2.769,0,5.26-1.127,7.079-2.929    c1.804-1.803,2.931-4.312,2.931-7.079S262.355,408.614,260.552,406.813z M253.473,395.969c4.956,0,9.444,2.027,12.662,5.244    c3.25,3.25,5.261,7.723,5.261,12.678s-2.011,9.429-5.261,12.678c-3.218,3.25-7.706,5.245-12.662,5.245    c-4.938,0-9.426-1.995-12.662-5.245c-3.25-3.249-5.243-7.723-5.243-12.678s1.993-9.428,5.243-12.678    C244.047,397.996,248.535,395.969,253.473,395.969z M283.188,269.771v85.623h96.74h0.112h37.18v-85.623    C372.543,269.771,327.867,269.771,283.188,269.771z M149.206,35.977h211.753c6.307,0,12.033,2.574,16.186,6.725    s6.742,9.878,6.742,16.185v185.08h9.443V40.996c0-4.119-1.705-7.884-4.408-10.586c-2.736-2.736-6.485-4.408-10.619-4.408H163.363    c-3.99,0-7.644,1.544-10.329,4.118C151.329,31.729,150.01,33.725,149.206,35.977z M234.36,70.115c-2.172,0-3.958-1.77-3.958-3.957    c0-2.188,1.786-3.958,3.958-3.958h38.243c2.187,0,3.958,1.77,3.958,3.958c0,2.188-1.771,3.957-3.958,3.957H234.36z     M295.464,289.561c-2.172,0-3.958-1.77-3.958-3.958s1.786-3.958,3.958-3.958h49.794c2.189,0,3.958,1.77,3.958,3.958    s-1.769,3.958-3.958,3.958H295.464z M295.464,306.066c-2.172,0-3.958-1.77-3.958-3.957s1.786-3.958,3.958-3.958h109.482    c2.187,0,3.956,1.771,3.956,3.958s-1.77,3.957-3.956,3.957H295.464z M295.464,322.573c-2.172,0-3.958-1.77-3.958-3.958    c0-2.188,1.786-3.957,3.958-3.957h109.482c2.187,0,3.956,1.77,3.956,3.957c0,2.188-1.77,3.958-3.956,3.958H295.464z     M295.464,339.08c-2.172,0-3.958-1.77-3.958-3.957c0-2.188,1.786-3.959,3.958-3.959h109.482c2.187,0,3.956,1.771,3.956,3.959    c0,2.188-1.77,3.957-3.956,3.957H295.464z M112.991,156.67c-2.172,0-3.941-1.77-3.941-3.957s1.769-3.957,3.941-3.957h10.086    v-10.072c0-2.188,1.769-3.957,3.959-3.957c2.172,0,3.941,1.77,3.941,3.957v10.072h10.072c2.187,0,3.955,1.77,3.955,3.957    s-1.769,3.957-3.955,3.957h-10.072v10.072c0,2.188-1.769,3.957-3.941,3.957c-2.19,0-3.959-1.77-3.959-3.957V156.67H112.991z     M197.777,121.341c-2.172,0-3.958-1.802-3.958-3.958c0-2.188,1.786-3.957,3.958-3.957h67.119c2.172,0,3.959,1.77,3.959,3.957    c0,2.156-1.787,3.958-3.959,3.958H197.777z M197.777,142.771c-2.172,0-3.958-1.771-3.958-3.958c0-2.156,1.786-3.957,3.958-3.957    h98.477c2.187,0,3.955,1.801,3.955,3.957c0,2.188-1.769,3.958-3.955,3.958H197.777z M197.777,164.232    c-2.172,0-3.958-1.77-3.958-3.958c0-2.188,1.786-3.958,3.958-3.958h146.9c2.19,0,3.959,1.771,3.959,3.958    c0,2.188-1.769,3.958-3.959,3.958H197.777z M197.777,185.694c-2.172,0-3.958-1.771-3.958-3.958s1.786-3.958,3.958-3.958h146.9    c2.19,0,3.959,1.771,3.959,3.958s-1.769,3.958-3.959,3.958H197.777z M197.777,207.156c-2.172,0-3.958-1.77-3.958-3.958    s1.786-3.958,3.958-3.958h146.9c2.19,0,3.959,1.77,3.959,3.958s-1.769,3.958-3.959,3.958H197.777z M76.405,470.521    c-2.187,0-3.955-1.77-3.955-3.958c0-2.187,1.769-3.957,3.955-3.957h254.309c2.173,0,3.94,1.771,3.94,3.957    c0,2.188-1.768,3.958-3.94,3.958H76.405z M441.305,478.083c2.173,0,3.959,1.771,3.959,3.958s-1.786,3.958-3.959,3.958H216.873    c-2.172,0-3.958-1.771-3.958-3.958s1.786-3.958,3.958-3.958H441.305z M198.869,478.083c2.172,0,3.959,1.771,3.959,3.958    s-1.787,3.958-3.959,3.958h-21.99c-2.19,0-3.959-1.771-3.959-3.958s1.769-3.958,3.959-3.958H198.869z M348.314,470.521    c-2.173,0-3.959-1.77-3.959-3.958c0-2.187,1.786-3.957,3.959-3.957h22.008c2.189,0,3.959,1.771,3.959,3.957    c0,2.188-1.77,3.958-3.959,3.958H348.314z M66.736,170.925c0,1.513,0.965,3.057,2.221,3.571c2.639,1.32,5.679-0.707,5.679-3.571    v-7.884c0-1.512-0.983-3.057-2.222-3.57c-2.636-1.32-5.678,0.707-5.678,3.57V170.925z M66.736,202.555    c0,1.512,0.965,3.057,2.221,3.572c2.639,1.286,5.679-0.709,5.679-3.572v-7.883c0-1.514-0.983-3.057-2.222-3.572    c-2.636-1.318-5.678,0.708-5.678,3.572V202.555z M96.437,212.4c1.495,0,3.057-0.997,3.555-2.252    c1.319-2.606-0.691-5.663-3.555-5.663H88.52c-1.481,0-3.039,0.966-3.538,2.22c-1.319,2.639,0.674,5.695,3.538,5.695H96.437z     M94.777,237.756c0,1.48,0.983,3.057,2.239,3.539c2.636,1.32,5.678-0.676,5.678-3.539v-7.915c0-1.48-0.982-3.058-2.221-3.54    c-2.639-1.318-5.696,0.676-5.696,3.54V237.756z M94.777,269.386c0,1.479,0.983,3.057,2.239,3.539    c2.636,1.319,5.678-0.675,5.678-3.539v-7.916c0-1.479-0.982-3.057-2.221-3.539c-2.639-1.319-5.696,0.676-5.696,3.539V269.386z     M94.777,301.016c0,1.479,0.983,3.024,2.239,3.539c2.636,1.319,5.678-0.708,5.678-3.539V293.1c0-1.512-0.982-3.057-2.221-3.572    c-2.639-1.318-5.696,0.709-5.696,3.572V301.016z M94.777,332.613c0,1.512,0.983,3.057,2.239,3.57    c2.636,1.32,5.678-0.707,5.678-3.57v-7.885c0-1.512-0.982-3.057-2.221-3.57c-2.639-1.319-5.696,0.707-5.696,3.57V332.613z     M94.777,364.242c0,1.513,0.983,3.057,2.239,3.572c2.636,1.318,5.678-0.709,5.678-3.572v-7.883c0-1.513-0.982-3.057-2.221-3.572    c-2.639-1.318-5.696,0.708-5.696,3.572V364.242z M74.636,131.412c0-1.512-0.983-3.057-2.222-3.572    c-2.636-1.318-5.678,0.709-5.678,3.572v7.916c0,1.479,0.965,3.023,2.221,3.539c2.639,1.319,5.679-0.676,5.679-3.539V131.412z     M155.4,181.093v-56.728c-18.92,0-37.826,0-56.745,0v56.728C117.575,181.093,136.48,181.093,155.4,181.093z" style="fill-rule:evenodd;clip-rule:evenodd;"/>
</g>
</g>
<g id="Layer_1"/>
</svg>