<?xml version="1.0" encoding="utf-8"?><!-- Uploaded to: SVG Repo, www.svgrepo.com, Generator: SVG Repo Mixer Tools -->
<svg version="1.1" id="Uploaded to svgrepo.com" xmlns="http://www.w3.org/2000/svg" xmlns:xlink="http://www.w3.org/1999/xlink" 
	 width="800px" height="800px" viewBox="0 0 32 32" xml:space="preserve">
<style type="text/css">
	.stone_een{fill:#0B1719;}
</style>
<path class="stone_een" d="M15,10h2v2h-2V10z M6.5,10C6.224,10,6,10.224,6,10.5S6.224,11,6.5,11S7,10.776,7,10.5S6.776,10,6.5,10z
	 M21.5,29H20v-2h-8v2h-1.5c-0.276,0-0.5,0.224-0.5,0.5c0,0.276,0.224,0.5,0.5,0.5h11c0.276,0,0.5-0.224,0.5-0.5
	C22,29.224,21.776,29,21.5,29z M32,7v16c0,1.657-1.343,3-3,3H3c-1.657,0-3-1.343-3-3V7c0-1.657,1.343-3,3-3h26
	C30.657,4,32,5.343,32,7z M26.966,10.174c-0.12-0.572-0.587-1.03-1.16-1.144c-0.782-0.154-1.475,0.3-1.713,0.97H18V9h-4v1H7.908
	C7.67,9.33,6.976,8.876,6.195,9.03c-0.573,0.113-1.04,0.572-1.16,1.144C4.83,11.145,5.565,12,6.5,12c0.652,0,1.202-0.419,1.408-1H14
	v0.224c-4.388,0.897-7.745,4.658-7.986,9.246C5.999,20.757,6.227,21,6.515,21h0c0.263,0,0.484-0.204,0.497-0.467
	c0.209-4.065,3.134-7.41,6.988-8.289V13h4v-0.757c3.854,0.88,6.779,4.225,6.988,8.289C25.002,20.796,25.222,21,25.485,21h0
	c0.288,0,0.516-0.243,0.501-0.53c-0.241-4.588-3.598-8.349-7.986-9.246V11h6.092c0.207,0.581,0.756,1,1.408,1
	C26.435,12,27.17,11.145,26.966,10.174z M25.5,10c-0.276,0-0.5,0.224-0.5,0.5s0.224,0.5,0.5,0.5s0.5-0.224,0.5-0.5
	S25.776,10,25.5,10z"/>
</svg>